<?xml version="1.0" encoding="UTF-8" standalone="no"?>
<!DOCTYPE svg PUBLIC "-//W3C//DTD SVG 1.1//EN"
 "http://www.w3.org/Graphics/SVG/1.1/DTD/svg11.dtd">
<!-- Generated by graphviz version 2.26.0 (20091210.2329)
 -->
<!-- Title: G Pages: 1 -->
<svg width="755pt" height="1649pt"
 viewBox="0.00 0.00 755.00 1649.00" xmlns="http://www.w3.org/2000/svg" xmlns:xlink="http://www.w3.org/1999/xlink">
<g id="graph1" class="graph" transform="scale(1 1) rotate(0) translate(4 1645)">
<title>G</title>
<polygon fill="white" stroke="white" points="-4,5 -4,-1645 752,-1645 752,5 -4,5"/>
<g id="graph2" class="cluster"><title>cluster_Global</title>
<polyline fill="none" stroke="gray" points="20,-46 727,-46 "/>
<path fill="none" stroke="gray" d="M727,-46C733,-46 739,-52 739,-58"/>
<polyline fill="none" stroke="gray" points="739,-58 739,-1621 "/>
<path fill="none" stroke="gray" d="M739,-1621C739,-1627 733,-1633 727,-1633"/>
<polyline fill="none" stroke="gray" points="727,-1633 20,-1633 "/>
<path fill="none" stroke="gray" d="M20,-1633C14,-1633 8,-1627 8,-1621"/>
<polyline fill="none" stroke="gray" points="8,-1621 8,-58 "/>
<path fill="none" stroke="gray" d="M8,-58C8,-52 14,-46 20,-46"/>
<text text-anchor="middle" x="373.5" y="-1619.1" font-family="Times Roman,serif" font-size="11.00" fill="gray">Global</text>
</g>
<!-- \\PhalApi -->
<g id="node2" class="node"><title>\\PhalApi</title>
<polygon fill="none" stroke="black" points="630,-1602 566,-1602 566,-1566 630,-1566 630,-1602"/>
<text text-anchor="middle" x="598" y="-1581.1" font-family="Courier,monospace" font-size="11.00">PhalApi</text>
</g>
<!-- \\PhalApi_Exception -->
<g id="node3" class="node"><title>\\PhalApi_Exception</title>
<polygon fill="none" stroke="black" points="358,-306 228,-306 228,-270 358,-270 358,-306"/>
<text text-anchor="middle" x="293" y="-285.1" font-family="Courier,monospace" font-size="11.00">PhalApi_Exception</text>
</g>
<!-- \\Exception -->
<g id="node49" class="node"><title>\\Exception</title>
<ellipse fill="none" stroke="black" cx="68" cy="-19" rx="53.033" ry="19.0919"/>
<text text-anchor="middle" x="68" y="-15.9" font-family="Times Roman,serif" font-size="14.00" fill="gray">\Exception</text>
</g>
<!-- \\PhalApi_Exception&#45;&gt;\\Exception -->
<g id="edge3" class="edge"><title>\\PhalApi_Exception&#45;&gt;\\Exception</title>
<path fill="none" stroke="black" d="M227.472,-283.733C214.855,-280.274 202.599,-274.733 193,-266 115.648,-195.629 191.216,-119.492 121,-42 119.611,-40.467 118.102,-39.0316 116.5,-37.6883"/>
<polygon fill="none" stroke="black" points="118.076,-34.5224 107.861,-31.7106 114.093,-40.2788 118.076,-34.5224"/>
</g>
<!-- \\PhalApi_Cookie -->
<g id="node4" class="node"><title>\\PhalApi_Cookie</title>
<polygon fill="none" stroke="black" points="348,-927 238,-927 238,-891 348,-891 348,-927"/>
<text text-anchor="middle" x="293" y="-906.1" font-family="Courier,monospace" font-size="11.00">PhalApi_Cookie</text>
</g>
<!-- \\PhalApi_Exception_InternalServerError -->
<g id="node5" class="node"><title>\\PhalApi_Exception_InternalServerError</title>
<polygon fill="none" stroke="black" points="731,-684 465,-684 465,-648 731,-648 731,-684"/>
<text text-anchor="middle" x="598" y="-663.1" font-family="Courier,monospace" font-size="11.00">PhalApi_Exception_InternalServerError</text>
</g>
<!-- \\PhalApi_Exception_InternalServerError&#45;&gt;\\PhalApi_Exception -->
<g id="edge5" class="edge"><title>\\PhalApi_Exception_InternalServerError&#45;&gt;\\PhalApi_Exception</title>
<path fill="none" stroke="black" d="M478.686,-647.847C473.88,-645.248 469.289,-642.313 465,-639 355.91,-554.732 311.648,-383.198 298.019,-315.944"/>
<polygon fill="none" stroke="black" points="301.443,-315.217 296.09,-306.074 294.573,-316.56 301.443,-315.217"/>
</g>
<!-- \\PhalApi_Exception_BadRequest -->
<g id="node6" class="node"><title>\\PhalApi_Exception_BadRequest</title>
<polygon fill="none" stroke="black" points="701,-306 495,-306 495,-270 701,-270 701,-306"/>
<text text-anchor="middle" x="598" y="-285.1" font-family="Courier,monospace" font-size="11.00">PhalApi_Exception_BadRequest</text>
</g>
<!-- \\PhalApi_Exception_BadRequest&#45;&gt;\\PhalApi_Exception -->
<g id="edge7" class="edge"><title>\\PhalApi_Exception_BadRequest&#45;&gt;\\PhalApi_Exception</title>
<path fill="none" stroke="black" d="M494.741,-288C453.67,-288 407.26,-288 369.318,-288"/>
<polygon fill="none" stroke="black" points="368.852,-284.5 358.852,-288 368.852,-291.5 368.852,-284.5"/>
</g>
<!-- \\PhalApi_DB_NotORM -->
<g id="node7" class="node"><title>\\PhalApi_DB_NotORM</title>
<polygon fill="none" stroke="black" points="663,-1440 533,-1440 533,-1404 663,-1404 663,-1440"/>
<text text-anchor="middle" x="598" y="-1419.1" font-family="Courier,monospace" font-size="11.00">PhalApi_DB_NotORM</text>
</g>
<!-- \\PhalApi_ApiFactory -->
<g id="node8" class="node"><title>\\PhalApi_ApiFactory</title>
<polygon fill="none" stroke="black" points="667,-1386 529,-1386 529,-1350 667,-1350 667,-1386"/>
<text text-anchor="middle" x="598" y="-1365.1" font-family="Courier,monospace" font-size="11.00">PhalApi_ApiFactory</text>
</g>
<!-- \\PhalApi_Loader -->
<g id="node9" class="node"><title>\\PhalApi_Loader</title>
<polygon fill="none" stroke="black" points="653,-1332 543,-1332 543,-1296 653,-1296 653,-1332"/>
<text text-anchor="middle" x="598" y="-1311.1" font-family="Courier,monospace" font-size="11.00">PhalApi_Loader</text>
</g>
<!-- \\PhalApi_Response_Explorer -->
<g id="node10" class="node"><title>\\PhalApi_Response_Explorer</title>
<polygon fill="none" stroke="black" points="690,-1278 506,-1278 506,-1242 690,-1242 690,-1278"/>
<text text-anchor="middle" x="598" y="-1257.1" font-family="Courier,monospace" font-size="11.00">PhalApi_Response_Explorer</text>
</g>
<!-- \\PhalApi_Response -->
<g id="node17" class="node"><title>\\PhalApi_Response</title>
<polygon fill="none" stroke="black" points="356,-1440 230,-1440 230,-1404 356,-1404 356,-1440"/>
<text text-anchor="start" x="259" y="-1427.43" font-family="Courier,monospace" font-size="11.00">«abstract»</text>
<text text-anchor="start" x="238.5" y="-1414.23" font-family="Courier,monospace" font-size="11.00">PhalApi_Response</text>
</g>
<!-- \\PhalApi_Response_Explorer&#45;&gt;\\PhalApi_Response -->
<g id="edge9" class="edge"><title>\\PhalApi_Response_Explorer&#45;&gt;\\PhalApi_Response</title>
<path fill="none" stroke="black" d="M505.355,-1273C491.486,-1276.59 477.619,-1281.17 465,-1287 405.913,-1314.3 348.814,-1365.6 317.549,-1396.49"/>
<polygon fill="none" stroke="black" points="314.76,-1394.33 310.171,-1403.88 319.713,-1399.28 314.76,-1394.33"/>
</g>
<!-- \\PhalApi_Response_Json -->
<g id="node11" class="node"><title>\\PhalApi_Response_Json</title>
<polygon fill="none" stroke="black" points="677,-1548 519,-1548 519,-1512 677,-1512 677,-1548"/>
<text text-anchor="middle" x="598" y="-1527.1" font-family="Courier,monospace" font-size="11.00">PhalApi_Response_Json</text>
</g>
<!-- \\PhalApi_Response_Json&#45;&gt;\\PhalApi_Response -->
<g id="edge11" class="edge"><title>\\PhalApi_Response_Json&#45;&gt;\\PhalApi_Response</title>
<path fill="none" stroke="black" d="M518.835,-1519.91C500.663,-1515.97 481.766,-1510.53 465,-1503 428.507,-1486.62 428.955,-1466.53 393,-1449 384.482,-1444.85 375.234,-1441.26 365.917,-1438.18"/>
<polygon fill="none" stroke="black" points="366.799,-1434.79 356.21,-1435.16 364.715,-1441.47 366.799,-1434.79"/>
</g>
<!-- \\PhalApi_Response_JsonP -->
<g id="node12" class="node"><title>\\PhalApi_Response_JsonP</title>
<polygon fill="none" stroke="black" points="680,-1494 516,-1494 516,-1458 680,-1458 680,-1494"/>
<text text-anchor="middle" x="598" y="-1473.1" font-family="Courier,monospace" font-size="11.00">PhalApi_Response_JsonP</text>
</g>
<!-- \\PhalApi_Response_JsonP&#45;&gt;\\PhalApi_Response -->
<g id="edge13" class="edge"><title>\\PhalApi_Response_JsonP&#45;&gt;\\PhalApi_Response</title>
<path fill="none" stroke="black" d="M515.463,-1461.39C468.882,-1453.14 411.184,-1442.92 366.221,-1434.96"/>
<polygon fill="none" stroke="black" points="366.705,-1431.5 356.248,-1433.2 365.485,-1438.39 366.705,-1431.5"/>
</g>
<!-- \\PhalApi_Logger_Explorer -->
<g id="node13" class="node"><title>\\PhalApi_Logger_Explorer</title>
<polygon fill="none" stroke="black" points="684,-1170 512,-1170 512,-1134 684,-1134 684,-1170"/>
<text text-anchor="middle" x="598" y="-1149.1" font-family="Courier,monospace" font-size="11.00">PhalApi_Logger_Explorer</text>
</g>
<!-- \\PhalApi_Logger -->
<g id="node15" class="node"><title>\\PhalApi_Logger</title>
<polygon fill="none" stroke="black" points="349,-1305 237,-1305 237,-1269 349,-1269 349,-1305"/>
<text text-anchor="start" x="259" y="-1292.43" font-family="Courier,monospace" font-size="11.00">«abstract»</text>
<text text-anchor="start" x="245.5" y="-1279.23" font-family="Courier,monospace" font-size="11.00">PhalApi_Logger</text>
</g>
<!-- \\PhalApi_Logger_Explorer&#45;&gt;\\PhalApi_Logger -->
<g id="edge15" class="edge"><title>\\PhalApi_Logger_Explorer&#45;&gt;\\PhalApi_Logger</title>
<path fill="none" stroke="black" d="M511.683,-1161.11C495.482,-1165.11 479.193,-1170.83 465,-1179 423.254,-1203.03 433.964,-1234.66 393,-1260 382.665,-1266.39 370.818,-1271.29 358.977,-1275.04"/>
<polygon fill="none" stroke="black" points="357.689,-1271.77 349.066,-1277.93 359.646,-1278.49 357.689,-1271.77"/>
</g>
<!-- \\PhalApi_Logger_File -->
<g id="node14" class="node"><title>\\PhalApi_Logger_File</title>
<polygon fill="none" stroke="black" points="670,-1224 526,-1224 526,-1188 670,-1188 670,-1224"/>
<text text-anchor="middle" x="598" y="-1203.1" font-family="Courier,monospace" font-size="11.00">PhalApi_Logger_File</text>
</g>
<!-- \\PhalApi_Logger_File&#45;&gt;\\PhalApi_Logger -->
<g id="edge17" class="edge"><title>\\PhalApi_Logger_File&#45;&gt;\\PhalApi_Logger</title>
<path fill="none" stroke="black" d="M525.364,-1218.58C505.628,-1222.58 484.363,-1227.44 465,-1233 432.151,-1242.43 425.534,-1249.53 393,-1260 382.077,-1263.51 370.386,-1266.95 358.989,-1270.14"/>
<polygon fill="none" stroke="black" points="357.789,-1266.84 349.076,-1272.87 359.646,-1273.59 357.789,-1266.84"/>
</g>
<!-- \\PhalApi_DI -->
<g id="node16" class="node"><title>\\PhalApi_DI</title>
<polygon fill="none" stroke="black" points="640,-252 556,-252 556,-216 640,-216 640,-252"/>
<text text-anchor="middle" x="598" y="-231.1" font-family="Courier,monospace" font-size="11.00">PhalApi_DI</text>
</g>
<!-- \\ArrayAccess -->
<g id="node58" class="node"><title>\\ArrayAccess</title>
<ellipse fill="none" stroke="black" cx="293" cy="-19" rx="63.1385" ry="19.0919"/>
<text text-anchor="middle" x="293" y="-15.9" font-family="Times Roman,serif" font-size="14.00" fill="gray">\ArrayAccess</text>
</g>
<!-- \\PhalApi_DI&#45;&gt;\\ArrayAccess -->
<g id="edge19" class="edge"><title>\\PhalApi_DI&#45;&gt;\\ArrayAccess</title>
<path fill="none" stroke="black" stroke-dasharray="1,5" d="M555.703,-235.122C527.225,-233.734 490.378,-227.514 465,-207 402.776,-156.701 454.57,-93.0967 393,-42 384.656,-35.0754 374.627,-30.1433 364.185,-26.6479"/>
<polygon fill="none" stroke="black" points="365.097,-23.268 354.517,-23.8256 363.135,-29.9876 365.097,-23.268"/>
</g>
<!-- \\PhalApi_Cache_Memcached -->
<g id="node18" class="node"><title>\\PhalApi_Cache_Memcached</title>
<polygon fill="none" stroke="black" points="684,-1116 512,-1116 512,-1080 684,-1080 684,-1116"/>
<text text-anchor="middle" x="598" y="-1095.1" font-family="Courier,monospace" font-size="11.00">PhalApi_Cache_Memcached</text>
</g>
<!-- \\PhalApi_Cache_Memcache -->
<g id="node19" class="node"><title>\\PhalApi_Cache_Memcache</title>
<polygon fill="none" stroke="black" points="375,-1143 211,-1143 211,-1107 375,-1107 375,-1143"/>
<text text-anchor="middle" x="293" y="-1122.1" font-family="Courier,monospace" font-size="11.00">PhalApi_Cache_Memcache</text>
</g>
<!-- \\PhalApi_Cache_Memcached&#45;&gt;\\PhalApi_Cache_Memcache -->
<g id="edge21" class="edge"><title>\\PhalApi_Cache_Memcached&#45;&gt;\\PhalApi_Cache_Memcache</title>
<path fill="none" stroke="black" d="M511.822,-1105.63C472.442,-1109.11 425.733,-1113.25 385.603,-1116.8"/>
<polygon fill="none" stroke="black" points="385.204,-1113.32 375.551,-1117.69 385.821,-1120.3 385.204,-1113.32"/>
</g>
<!-- \\PhalApi_Cache -->
<g id="node47" class="node"><title>\\PhalApi_Cache</title>
<polygon fill="none" stroke="black" points="120,-1224 16,-1224 16,-1188 120,-1188 120,-1224"/>
<text text-anchor="middle" x="68" y="-1203.1" font-family="Courier,monospace" font-size="11.00">PhalApi_Cache</text>
</g>
<!-- \\PhalApi_Cache_Memcache&#45;&gt;\\PhalApi_Cache -->
<g id="edge23" class="edge"><title>\\PhalApi_Cache_Memcache&#45;&gt;\\PhalApi_Cache</title>
<path fill="none" stroke="black" stroke-dasharray="1,5" d="M221.328,-1143.01C211.738,-1145.81 202.084,-1148.83 193,-1152 166.811,-1161.14 138.37,-1173.24 115.243,-1183.68"/>
<polygon fill="none" stroke="black" points="113.657,-1180.55 106.006,-1187.88 116.557,-1186.92 113.657,-1180.55"/>
</g>
<!-- \\PhalApi_Cache_None -->
<g id="node20" class="node"><title>\\PhalApi_Cache_None</title>
<polygon fill="none" stroke="black" points="362,-1494 224,-1494 224,-1458 362,-1458 362,-1494"/>
<text text-anchor="middle" x="293" y="-1473.1" font-family="Courier,monospace" font-size="11.00">PhalApi_Cache_None</text>
</g>
<!-- \\PhalApi_Cache_None&#45;&gt;\\PhalApi_Cache -->
<g id="edge25" class="edge"><title>\\PhalApi_Cache_None&#45;&gt;\\PhalApi_Cache</title>
<path fill="none" stroke="black" stroke-dasharray="1,5" d="M223.989,-1465.52C212.845,-1461.62 202.021,-1456.29 193,-1449 122.554,-1392.07 87.6587,-1284.9 74.4696,-1234.09"/>
<polygon fill="none" stroke="black" points="77.803,-1232.99 71.9796,-1224.14 71.0124,-1234.69 77.803,-1232.99"/>
</g>
<!-- \\PhalApi_Cache_Multi -->
<g id="node21" class="node"><title>\\PhalApi_Cache_Multi</title>
<polygon fill="none" stroke="black" points="365,-1251 221,-1251 221,-1215 365,-1215 365,-1251"/>
<text text-anchor="middle" x="293" y="-1230.1" font-family="Courier,monospace" font-size="11.00">PhalApi_Cache_Multi</text>
</g>
<!-- \\PhalApi_Cache_Multi&#45;&gt;\\PhalApi_Cache -->
<g id="edge27" class="edge"><title>\\PhalApi_Cache_Multi&#45;&gt;\\PhalApi_Cache</title>
<path fill="none" stroke="black" stroke-dasharray="1,5" d="M220.26,-1224.27C191.215,-1220.79 158.112,-1216.81 130.208,-1213.46"/>
<polygon fill="none" stroke="black" points="130.525,-1209.98 120.18,-1212.26 129.691,-1216.93 130.525,-1209.98"/>
</g>
<!-- \\PhalApi_Cache_File -->
<g id="node22" class="node"><title>\\PhalApi_Cache_File</title>
<polygon fill="none" stroke="black" points="362,-1197 224,-1197 224,-1161 362,-1161 362,-1197"/>
<text text-anchor="middle" x="293" y="-1176.1" font-family="Courier,monospace" font-size="11.00">PhalApi_Cache_File</text>
</g>
<!-- \\PhalApi_Cache_File&#45;&gt;\\PhalApi_Cache -->
<g id="edge29" class="edge"><title>\\PhalApi_Cache_File&#45;&gt;\\PhalApi_Cache</title>
<path fill="none" stroke="black" stroke-dasharray="1,5" d="M223.963,-1187.28C194.035,-1190.88 159.256,-1195.05 130.146,-1198.54"/>
<polygon fill="none" stroke="black" points="129.614,-1195.08 120.103,-1199.75 130.448,-1202.03 129.614,-1195.08"/>
</g>
<!-- \\PhalApi_ModelQuery -->
<g id="node23" class="node"><title>\\PhalApi_ModelQuery</title>
<polygon fill="none" stroke="black" points="667,-900 529,-900 529,-864 667,-864 667,-900"/>
<text text-anchor="middle" x="598" y="-879.1" font-family="Courier,monospace" font-size="11.00">PhalApi_ModelQuery</text>
</g>
<!-- \\PhalApi_Model_NotORM -->
<g id="node24" class="node"><title>\\PhalApi_Model_NotORM</title>
<polygon fill="none" stroke="black" points="674,-1062 522,-1062 522,-1026 674,-1026 674,-1062"/>
<text text-anchor="start" x="564" y="-1049.43" font-family="Courier,monospace" font-size="11.00">«abstract»</text>
<text text-anchor="start" x="530" y="-1036.23" font-family="Courier,monospace" font-size="11.00">PhalApi_Model_NotORM</text>
</g>
<!-- \\PhalApi_Model -->
<g id="node43" class="node"><title>\\PhalApi_Model</title>
<polygon fill="none" stroke="black" points="345,-1035 241,-1035 241,-999 345,-999 345,-1035"/>
<text text-anchor="middle" x="293" y="-1014.1" font-family="Courier,monospace" font-size="11.00">PhalApi_Model</text>
</g>
<!-- \\PhalApi_Model_NotORM&#45;&gt;\\PhalApi_Model -->
<g id="edge31" class="edge"><title>\\PhalApi_Model_NotORM&#45;&gt;\\PhalApi_Model</title>
<path fill="none" stroke="black" stroke-dasharray="1,5" d="M521.429,-1037.22C470.03,-1032.67 403.181,-1026.75 355.097,-1022.5"/>
<polygon fill="none" stroke="black" points="355.403,-1019.01 345.134,-1021.62 354.786,-1025.98 355.403,-1019.01"/>
</g>
<!-- \\PhalApi_Config_File -->
<g id="node25" class="node"><title>\\PhalApi_Config_File</title>
<polygon fill="none" stroke="black" points="670,-1008 526,-1008 526,-972 670,-972 670,-1008"/>
<text text-anchor="middle" x="598" y="-987.1" font-family="Courier,monospace" font-size="11.00">PhalApi_Config_File</text>
</g>
<!-- \\PhalApi_Config -->
<g id="node45" class="node"><title>\\PhalApi_Config</title>
<polygon fill="none" stroke="black" points="348,-981 238,-981 238,-945 348,-945 348,-981"/>
<text text-anchor="middle" x="293" y="-960.1" font-family="Courier,monospace" font-size="11.00">PhalApi_Config</text>
</g>
<!-- \\PhalApi_Config_File&#45;&gt;\\PhalApi_Config -->
<g id="edge33" class="edge"><title>\\PhalApi_Config_File&#45;&gt;\\PhalApi_Config</title>
<path fill="none" stroke="black" stroke-dasharray="1,5" d="M525.332,-983.567C474.832,-979.097 408.066,-973.186 359.07,-968.849"/>
<polygon fill="none" stroke="black" points="359.166,-965.344 348.897,-967.948 358.549,-972.316 359.166,-965.344"/>
</g>
<!-- \\PhalApi_Request -->
<g id="node26" class="node"><title>\\PhalApi_Request</title>
<polygon fill="none" stroke="black" points="657,-738 539,-738 539,-702 657,-702 657,-738"/>
<text text-anchor="middle" x="598" y="-717.1" font-family="Courier,monospace" font-size="11.00">PhalApi_Request</text>
</g>
<!-- \\PhalApi_Cookie_Multi -->
<g id="node27" class="node"><title>\\PhalApi_Cookie_Multi</title>
<polygon fill="none" stroke="black" points="674,-954 522,-954 522,-918 674,-918 674,-954"/>
<text text-anchor="middle" x="598" y="-933.1" font-family="Courier,monospace" font-size="11.00">PhalApi_Cookie_Multi</text>
</g>
<!-- \\PhalApi_Cookie_Multi&#45;&gt;\\PhalApi_Cookie -->
<g id="edge35" class="edge"><title>\\PhalApi_Cookie_Multi&#45;&gt;\\PhalApi_Cookie</title>
<path fill="none" stroke="black" d="M521.822,-929.256C471.686,-924.818 406.721,-919.067 358.829,-914.827"/>
<polygon fill="none" stroke="black" points="358.844,-911.315 348.575,-913.92 358.227,-918.288 358.844,-911.315"/>
</g>
<!-- \\PhalApi_CUrl -->
<g id="node28" class="node"><title>\\PhalApi_CUrl</title>
<polygon fill="none" stroke="black" points="647,-630 549,-630 549,-594 647,-594 647,-630"/>
<text text-anchor="middle" x="598" y="-609.1" font-family="Courier,monospace" font-size="11.00">PhalApi_CUrl</text>
</g>
<!-- \\PhalApi_ModelProxy -->
<g id="node29" class="node"><title>\\PhalApi_ModelProxy</title>
<polygon fill="none" stroke="black" points="667,-576 529,-576 529,-540 667,-540 667,-576"/>
<text text-anchor="start" x="564" y="-563.433" font-family="Courier,monospace" font-size="11.00">«abstract»</text>
<text text-anchor="start" x="537" y="-550.233" font-family="Courier,monospace" font-size="11.00">PhalApi_ModelProxy</text>
</g>
<!-- \\PhalApi_Translator -->
<g id="node30" class="node"><title>\\PhalApi_Translator</title>
<polygon fill="none" stroke="black" points="667,-522 529,-522 529,-486 667,-486 667,-522"/>
<text text-anchor="middle" x="598" y="-501.1" font-family="Courier,monospace" font-size="11.00">PhalApi_Translator</text>
</g>
<!-- \\PhalApi_Request_Var -->
<g id="node31" class="node"><title>\\PhalApi_Request_Var</title>
<polygon fill="none" stroke="black" points="670,-468 526,-468 526,-432 670,-432 670,-468"/>
<text text-anchor="middle" x="598" y="-447.1" font-family="Courier,monospace" font-size="11.00">PhalApi_Request_Var</text>
</g>
<!-- \\PhalApi_Api -->
<g id="node32" class="node"><title>\\PhalApi_Api</title>
<polygon fill="none" stroke="black" points="643,-414 553,-414 553,-378 643,-378 643,-414"/>
<text text-anchor="middle" x="598" y="-393.1" font-family="Courier,monospace" font-size="11.00">PhalApi_Api</text>
</g>
<!-- \\PhalApi_Tool -->
<g id="node33" class="node"><title>\\PhalApi_Tool</title>
<polygon fill="none" stroke="black" points="647,-360 549,-360 549,-324 647,-324 647,-360"/>
<text text-anchor="middle" x="598" y="-339.1" font-family="Courier,monospace" font-size="11.00">PhalApi_Tool</text>
</g>
<!-- \\PhalApi_Crypt_RSA_Pri2Pub -->
<g id="node34" class="node"><title>\\PhalApi_Crypt_RSA_Pri2Pub</title>
<polygon fill="none" stroke="black" points="385,-1089 201,-1089 201,-1053 385,-1053 385,-1089"/>
<text text-anchor="middle" x="293" y="-1068.1" font-family="Courier,monospace" font-size="11.00">PhalApi_Crypt_RSA_Pri2Pub</text>
</g>
<!-- \\PhalApi_Crypt -->
<g id="node42" class="node"><title>\\PhalApi_Crypt</title>
<polygon fill="none" stroke="black" points="120,-792 16,-792 16,-756 120,-756 120,-792"/>
<text text-anchor="middle" x="68" y="-771.1" font-family="Courier,monospace" font-size="11.00">PhalApi_Crypt</text>
</g>
<!-- \\PhalApi_Crypt_RSA_Pri2Pub&#45;&gt;\\PhalApi_Crypt -->
<g id="edge37" class="edge"><title>\\PhalApi_Crypt_RSA_Pri2Pub&#45;&gt;\\PhalApi_Crypt</title>
<path fill="none" stroke="black" stroke-dasharray="1,5" d="M205.964,-1052.89C201.354,-1050.31 196.987,-1047.36 193,-1044 116.36,-979.386 84.0838,-857.579 72.9519,-802.42"/>
<polygon fill="none" stroke="black" points="76.3329,-801.469 71.0006,-792.314 69.4599,-802.796 76.3329,-801.469"/>
</g>
<!-- \\PhalApi_Crypt_RSA_MultiPri2Pub -->
<g id="node35" class="node"><title>\\PhalApi_Crypt_RSA_MultiPri2Pub</title>
<polygon fill="none" stroke="black" points="707,-792 489,-792 489,-756 707,-756 707,-792"/>
<text text-anchor="middle" x="598" y="-771.1" font-family="Courier,monospace" font-size="11.00">PhalApi_Crypt_RSA_MultiPri2Pub</text>
</g>
<!-- \\PhalApi_Crypt_RSA_MultiBase -->
<g id="node37" class="node"><title>\\PhalApi_Crypt_RSA_MultiBase</title>
<polygon fill="none" stroke="black" points="393,-846 193,-846 193,-810 393,-810 393,-846"/>
<text text-anchor="start" x="259" y="-833.433" font-family="Courier,monospace" font-size="11.00">«abstract»</text>
<text text-anchor="start" x="201.5" y="-820.233" font-family="Courier,monospace" font-size="11.00">PhalApi_Crypt_RSA_MultiBase</text>
</g>
<!-- \\PhalApi_Crypt_RSA_MultiPri2Pub&#45;&gt;\\PhalApi_Crypt_RSA_MultiBase -->
<g id="edge39" class="edge"><title>\\PhalApi_Crypt_RSA_MultiPri2Pub&#45;&gt;\\PhalApi_Crypt_RSA_MultiBase</title>
<path fill="none" stroke="black" d="M496.015,-792.056C466.22,-797.331 433.525,-803.12 403.243,-808.481"/>
<polygon fill="none" stroke="black" points="402.311,-805.092 393.074,-810.282 403.531,-811.985 402.311,-805.092"/>
</g>
<!-- \\PhalApi_Crypt_RSA_MultiPub2Pri -->
<g id="node36" class="node"><title>\\PhalApi_Crypt_RSA_MultiPub2Pri</title>
<polygon fill="none" stroke="black" points="707,-846 489,-846 489,-810 707,-810 707,-846"/>
<text text-anchor="middle" x="598" y="-825.1" font-family="Courier,monospace" font-size="11.00">PhalApi_Crypt_RSA_MultiPub2Pri</text>
</g>
<!-- \\PhalApi_Crypt_RSA_MultiPub2Pri&#45;&gt;\\PhalApi_Crypt_RSA_MultiBase -->
<g id="edge41" class="edge"><title>\\PhalApi_Crypt_RSA_MultiPub2Pri&#45;&gt;\\PhalApi_Crypt_RSA_MultiBase</title>
<path fill="none" stroke="black" d="M488.319,-828C460.636,-828 430.905,-828 403.197,-828"/>
<polygon fill="none" stroke="black" points="403.088,-824.5 393.088,-828 403.088,-831.5 403.088,-824.5"/>
</g>
<!-- \\PhalApi_Crypt_RSA_MultiBase&#45;&gt;\\PhalApi_Crypt -->
<g id="edge43" class="edge"><title>\\PhalApi_Crypt_RSA_MultiBase&#45;&gt;\\PhalApi_Crypt</title>
<path fill="none" stroke="black" stroke-dasharray="1,5" d="M217.765,-809.944C189.207,-803.09 157.036,-795.369 129.852,-788.844"/>
<polygon fill="none" stroke="black" points="130.619,-785.429 120.078,-786.499 128.985,-792.236 130.619,-785.429"/>
</g>
<!-- \\PhalApi_Crypt_RSA_KeyGenerator -->
<g id="node38" class="node"><title>\\PhalApi_Crypt_RSA_KeyGenerator</title>
<polygon fill="none" stroke="black" points="707,-198 489,-198 489,-162 707,-162 707,-198"/>
<text text-anchor="middle" x="598" y="-177.1" font-family="Courier,monospace" font-size="11.00">PhalApi_Crypt_RSA_KeyGenerator</text>
</g>
<!-- \\PhalApi_Crypt_RSA_Pub2Pri -->
<g id="node39" class="node"><title>\\PhalApi_Crypt_RSA_Pub2Pri</title>
<polygon fill="none" stroke="black" points="385,-792 201,-792 201,-756 385,-756 385,-792"/>
<text text-anchor="middle" x="293" y="-771.1" font-family="Courier,monospace" font-size="11.00">PhalApi_Crypt_RSA_Pub2Pri</text>
</g>
<!-- \\PhalApi_Crypt_RSA_Pub2Pri&#45;&gt;\\PhalApi_Crypt -->
<g id="edge45" class="edge"><title>\\PhalApi_Crypt_RSA_Pub2Pri&#45;&gt;\\PhalApi_Crypt</title>
<path fill="none" stroke="black" stroke-dasharray="1,5" d="M200.185,-774C176.567,-774 151.755,-774 130.088,-774"/>
<polygon fill="none" stroke="black" points="130.048,-770.5 120.048,-774 130.048,-777.5 130.048,-770.5"/>
</g>
<!-- \\PhalApi_Crypt_Mcrypt -->
<g id="node40" class="node"><title>\\PhalApi_Crypt_Mcrypt</title>
<polygon fill="none" stroke="black" points="369,-738 217,-738 217,-702 369,-702 369,-738"/>
<text text-anchor="middle" x="293" y="-717.1" font-family="Courier,monospace" font-size="11.00">PhalApi_Crypt_Mcrypt</text>
</g>
<!-- \\PhalApi_Crypt_Mcrypt&#45;&gt;\\PhalApi_Crypt -->
<g id="edge47" class="edge"><title>\\PhalApi_Crypt_Mcrypt&#45;&gt;\\PhalApi_Crypt</title>
<path fill="none" stroke="black" stroke-dasharray="1,5" d="M217.765,-738.056C189.207,-744.91 157.036,-752.631 129.852,-759.156"/>
<polygon fill="none" stroke="black" points="128.985,-755.764 120.078,-761.501 130.619,-762.571 128.985,-755.764"/>
</g>
<!-- \\PhalApi_Crypt_MultiMcrypt -->
<g id="node41" class="node"><title>\\PhalApi_Crypt_MultiMcrypt</title>
<polygon fill="none" stroke="black" points="385,-684 201,-684 201,-648 385,-648 385,-684"/>
<text text-anchor="middle" x="293" y="-663.1" font-family="Courier,monospace" font-size="11.00">PhalApi_Crypt_MultiMcrypt</text>
</g>
<!-- \\PhalApi_Crypt_MultiMcrypt&#45;&gt;\\PhalApi_Crypt -->
<g id="edge49" class="edge"><title>\\PhalApi_Crypt_MultiMcrypt&#45;&gt;\\PhalApi_Crypt</title>
<path fill="none" stroke="black" stroke-dasharray="1,5" d="M213.747,-684.008C206.578,-686.643 199.556,-689.627 193,-693 158.941,-710.52 156.649,-727.938 122.858,-750.366"/>
<polygon fill="none" stroke="black" points="120.706,-747.584 114.091,-755.859 124.423,-753.516 120.706,-747.584"/>
</g>
<!-- \\PhalApi_Filter -->
<g id="node44" class="node"><title>\\PhalApi_Filter</title>
<polygon fill="none" stroke="black" points="653,-144 543,-144 543,-108 653,-108 653,-144"/>
<text text-anchor="middle" x="598" y="-123.1" font-family="Courier,monospace" font-size="11.00">PhalApi_Filter</text>
</g>
<!-- \\PhalApi_DB -->
<g id="node46" class="node"><title>\\PhalApi_DB</title>
<polygon fill="none" stroke="black" points="640,-90 556,-90 556,-54 640,-54 640,-90"/>
<text text-anchor="middle" x="598" y="-69.1" font-family="Courier,monospace" font-size="11.00">PhalApi_DB</text>
</g>
</g>
</svg>
