<?xml version="1.0" encoding="UTF-8" standalone="no"?>
<!DOCTYPE svg PUBLIC "-//W3C//DTD SVG 1.1//EN"
 "http://www.w3.org/Graphics/SVG/1.1/DTD/svg11.dtd">
<!-- Generated by graphviz version 2.26.0 (20091210.2329)
 -->
<!-- Title: G Pages: 1 -->
<svg width="755pt" height="1757pt"
 viewBox="0.00 0.00 755.00 1757.00" xmlns="http://www.w3.org/2000/svg" xmlns:xlink="http://www.w3.org/1999/xlink">
<g id="graph1" class="graph" transform="scale(1 1) rotate(0) translate(4 1753)">
<title>G</title>
<polygon fill="white" stroke="white" points="-4,5 -4,-1753 752,-1753 752,5 -4,5"/>
<g id="graph2" class="cluster"><title>cluster_Global</title>
<polyline fill="none" stroke="gray" points="20,-46 727,-46 "/>
<path fill="none" stroke="gray" d="M727,-46C733,-46 739,-52 739,-58"/>
<polyline fill="none" stroke="gray" points="739,-58 739,-1729 "/>
<path fill="none" stroke="gray" d="M739,-1729C739,-1735 733,-1741 727,-1741"/>
<polyline fill="none" stroke="gray" points="727,-1741 20,-1741 "/>
<path fill="none" stroke="gray" d="M20,-1741C14,-1741 8,-1735 8,-1729"/>
<polyline fill="none" stroke="gray" points="8,-1729 8,-58 "/>
<path fill="none" stroke="gray" d="M8,-58C8,-52 14,-46 20,-46"/>
<text text-anchor="middle" x="373.5" y="-1727.1" font-family="Times Roman,serif" font-size="11.00" fill="gray">Global</text>
</g>
<!-- \\PhalApi -->
<g id="node2" class="node"><title>\\PhalApi</title>
<polygon fill="none" stroke="black" points="630,-1710 566,-1710 566,-1674 630,-1674 630,-1710"/>
<text text-anchor="middle" x="598" y="-1689.1" font-family="Courier,monospace" font-size="11.00">PhalApi</text>
</g>
<!-- \\PhalApi_Exception -->
<g id="node3" class="node"><title>\\PhalApi_Exception</title>
<polygon fill="none" stroke="black" points="358,-306 228,-306 228,-270 358,-270 358,-306"/>
<text text-anchor="middle" x="293" y="-285.1" font-family="Courier,monospace" font-size="11.00">PhalApi_Exception</text>
</g>
<!-- \\Exception -->
<g id="node52" class="node"><title>\\Exception</title>
<ellipse fill="none" stroke="black" cx="68" cy="-19" rx="53.033" ry="19.0919"/>
<text text-anchor="middle" x="68" y="-15.9" font-family="Times Roman,serif" font-size="14.00" fill="gray">\Exception</text>
</g>
<!-- \\PhalApi_Exception&#45;&gt;\\Exception -->
<g id="edge3" class="edge"><title>\\PhalApi_Exception&#45;&gt;\\Exception</title>
<path fill="none" stroke="black" d="M227.472,-283.733C214.855,-280.274 202.599,-274.733 193,-266 115.648,-195.629 191.216,-119.492 121,-42 119.611,-40.467 118.102,-39.0316 116.5,-37.6883"/>
<polygon fill="none" stroke="black" points="118.076,-34.5224 107.861,-31.7106 114.093,-40.2788 118.076,-34.5224"/>
</g>
<!-- \\PhalApi_Cookie -->
<g id="node4" class="node"><title>\\PhalApi_Cookie</title>
<polygon fill="none" stroke="black" points="348,-1062 238,-1062 238,-1026 348,-1026 348,-1062"/>
<text text-anchor="middle" x="293" y="-1041.1" font-family="Courier,monospace" font-size="11.00">PhalApi_Cookie</text>
</g>
<!-- \\PhalApi_Exception_InternalServerError -->
<g id="node5" class="node"><title>\\PhalApi_Exception_InternalServerError</title>
<polygon fill="none" stroke="black" points="731,-792 465,-792 465,-756 731,-756 731,-792"/>
<text text-anchor="middle" x="598" y="-771.1" font-family="Courier,monospace" font-size="11.00">PhalApi_Exception_InternalServerError</text>
</g>
<!-- \\PhalApi_Exception_InternalServerError&#45;&gt;\\PhalApi_Exception -->
<g id="edge5" class="edge"><title>\\PhalApi_Exception_InternalServerError&#45;&gt;\\PhalApi_Exception</title>
<path fill="none" stroke="black" d="M477.662,-755.996C473.191,-753.349 468.944,-750.364 465,-747 329.585,-631.481 300.63,-398.322 294.567,-316.871"/>
<polygon fill="none" stroke="black" points="298.026,-316.152 293.855,-306.413 291.043,-316.628 298.026,-316.152"/>
</g>
<!-- \\PhalApi_Exception_BadRequest -->
<g id="node6" class="node"><title>\\PhalApi_Exception_BadRequest</title>
<polygon fill="none" stroke="black" points="701,-306 495,-306 495,-270 701,-270 701,-306"/>
<text text-anchor="middle" x="598" y="-285.1" font-family="Courier,monospace" font-size="11.00">PhalApi_Exception_BadRequest</text>
</g>
<!-- \\PhalApi_Exception_BadRequest&#45;&gt;\\PhalApi_Exception -->
<g id="edge7" class="edge"><title>\\PhalApi_Exception_BadRequest&#45;&gt;\\PhalApi_Exception</title>
<path fill="none" stroke="black" d="M494.741,-288C453.67,-288 407.26,-288 369.318,-288"/>
<polygon fill="none" stroke="black" points="368.852,-284.5 358.852,-288 368.852,-291.5 368.852,-284.5"/>
</g>
<!-- \\PhalApi_DB_NotORM -->
<g id="node7" class="node"><title>\\PhalApi_DB_NotORM</title>
<polygon fill="none" stroke="black" points="663,-1548 533,-1548 533,-1512 663,-1512 663,-1548"/>
<text text-anchor="middle" x="598" y="-1527.1" font-family="Courier,monospace" font-size="11.00">PhalApi_DB_NotORM</text>
</g>
<!-- \\PhalApi_ApiFactory -->
<g id="node8" class="node"><title>\\PhalApi_ApiFactory</title>
<polygon fill="none" stroke="black" points="667,-1494 529,-1494 529,-1458 667,-1458 667,-1494"/>
<text text-anchor="middle" x="598" y="-1473.1" font-family="Courier,monospace" font-size="11.00">PhalApi_ApiFactory</text>
</g>
<!-- \\PhalApi_Loader -->
<g id="node9" class="node"><title>\\PhalApi_Loader</title>
<polygon fill="none" stroke="black" points="653,-1440 543,-1440 543,-1404 653,-1404 653,-1440"/>
<text text-anchor="middle" x="598" y="-1419.1" font-family="Courier,monospace" font-size="11.00">PhalApi_Loader</text>
</g>
<!-- \\PhalApi_Response_Explorer -->
<g id="node10" class="node"><title>\\PhalApi_Response_Explorer</title>
<polygon fill="none" stroke="black" points="690,-1602 506,-1602 506,-1566 690,-1566 690,-1602"/>
<text text-anchor="middle" x="598" y="-1581.1" font-family="Courier,monospace" font-size="11.00">PhalApi_Response_Explorer</text>
</g>
<!-- \\PhalApi_Response -->
<g id="node17" class="node"><title>\\PhalApi_Response</title>
<polygon fill="none" stroke="black" points="356,-1575 230,-1575 230,-1539 356,-1539 356,-1575"/>
<text text-anchor="start" x="259" y="-1562.43" font-family="Courier,monospace" font-size="11.00">«abstract»</text>
<text text-anchor="start" x="238.5" y="-1549.23" font-family="Courier,monospace" font-size="11.00">PhalApi_Response</text>
</g>
<!-- \\PhalApi_Response_Explorer&#45;&gt;\\PhalApi_Response -->
<g id="edge9" class="edge"><title>\\PhalApi_Response_Explorer&#45;&gt;\\PhalApi_Response</title>
<path fill="none" stroke="black" d="M505.248,-1575.79C460.723,-1571.85 408.126,-1567.19 366.431,-1563.5"/>
<polygon fill="none" stroke="black" points="366.62,-1560 356.35,-1562.61 366.003,-1566.98 366.62,-1560"/>
</g>
<!-- \\PhalApi_Response_Json -->
<g id="node11" class="node"><title>\\PhalApi_Response_Json</title>
<polygon fill="none" stroke="black" points="677,-1386 519,-1386 519,-1350 677,-1350 677,-1386"/>
<text text-anchor="middle" x="598" y="-1365.1" font-family="Courier,monospace" font-size="11.00">PhalApi_Response_Json</text>
</g>
<!-- \\PhalApi_Response_Json&#45;&gt;\\PhalApi_Response -->
<g id="edge11" class="edge"><title>\\PhalApi_Response_Json&#45;&gt;\\PhalApi_Response</title>
<path fill="none" stroke="black" d="M518.728,-1373.68C499.974,-1377.75 480.842,-1384.36 465,-1395 417.113,-1427.17 435.642,-1464.15 393,-1503 379.406,-1515.39 362.455,-1525.91 346.393,-1534.29"/>
<polygon fill="none" stroke="black" points="344.437,-1531.35 337.071,-1538.97 347.578,-1537.61 344.437,-1531.35"/>
</g>
<!-- \\PhalApi_Response_JsonP -->
<g id="node12" class="node"><title>\\PhalApi_Response_JsonP</title>
<polygon fill="none" stroke="black" points="680,-1656 516,-1656 516,-1620 680,-1620 680,-1656"/>
<text text-anchor="middle" x="598" y="-1635.1" font-family="Courier,monospace" font-size="11.00">PhalApi_Response_JsonP</text>
</g>
<!-- \\PhalApi_Response_JsonP&#45;&gt;\\PhalApi_Response -->
<g id="edge13" class="edge"><title>\\PhalApi_Response_JsonP&#45;&gt;\\PhalApi_Response</title>
<path fill="none" stroke="black" d="M515.208,-1623.31C498.47,-1619.75 481.079,-1615.62 465,-1611 432.151,-1601.57 425.534,-1594.47 393,-1584 384.326,-1581.21 375.167,-1578.47 366.056,-1575.86"/>
<polygon fill="none" stroke="black" points="366.788,-1572.43 356.214,-1573.09 364.892,-1579.17 366.788,-1572.43"/>
</g>
<!-- \\PhalApi_Logger_Explorer -->
<g id="node13" class="node"><title>\\PhalApi_Logger_Explorer</title>
<polygon fill="none" stroke="black" points="684,-1278 512,-1278 512,-1242 684,-1242 684,-1278"/>
<text text-anchor="middle" x="598" y="-1257.1" font-family="Courier,monospace" font-size="11.00">PhalApi_Logger_Explorer</text>
</g>
<!-- \\PhalApi_Logger -->
<g id="node15" class="node"><title>\\PhalApi_Logger</title>
<polygon fill="none" stroke="black" points="349,-1494 237,-1494 237,-1458 349,-1458 349,-1494"/>
<text text-anchor="start" x="259" y="-1481.43" font-family="Courier,monospace" font-size="11.00">«abstract»</text>
<text text-anchor="start" x="245.5" y="-1468.23" font-family="Courier,monospace" font-size="11.00">PhalApi_Logger</text>
</g>
<!-- \\PhalApi_Logger_Explorer&#45;&gt;\\PhalApi_Logger -->
<g id="edge15" class="edge"><title>\\PhalApi_Logger_Explorer&#45;&gt;\\PhalApi_Logger</title>
<path fill="none" stroke="black" d="M511.838,-1265.16C494.991,-1269.41 478.413,-1276.23 465,-1287 403.558,-1336.32 452.847,-1397.75 393,-1449 383.3,-1457.31 371.286,-1463.08 358.989,-1467.09"/>
<polygon fill="none" stroke="black" points="357.742,-1463.81 349.105,-1469.94 359.683,-1470.53 357.742,-1463.81"/>
</g>
<!-- \\PhalApi_Logger_File -->
<g id="node14" class="node"><title>\\PhalApi_Logger_File</title>
<polygon fill="none" stroke="black" points="670,-1332 526,-1332 526,-1296 670,-1296 670,-1332"/>
<text text-anchor="middle" x="598" y="-1311.1" font-family="Courier,monospace" font-size="11.00">PhalApi_Logger_File</text>
</g>
<!-- \\PhalApi_Logger_File&#45;&gt;\\PhalApi_Logger -->
<g id="edge17" class="edge"><title>\\PhalApi_Logger_File&#45;&gt;\\PhalApi_Logger</title>
<path fill="none" stroke="black" d="M525.305,-1318.35C504.507,-1322.25 482.7,-1329.11 465,-1341 417.113,-1373.17 439.842,-1415.33 393,-1449 382.861,-1456.29 370.865,-1461.61 358.765,-1465.49"/>
<polygon fill="none" stroke="black" points="357.698,-1462.16 349.073,-1468.31 359.653,-1468.88 357.698,-1462.16"/>
</g>
<!-- \\PhalApi_DI -->
<g id="node16" class="node"><title>\\PhalApi_DI</title>
<polygon fill="none" stroke="black" points="640,-252 556,-252 556,-216 640,-216 640,-252"/>
<text text-anchor="middle" x="598" y="-231.1" font-family="Courier,monospace" font-size="11.00">PhalApi_DI</text>
</g>
<!-- \\ArrayAccess -->
<g id="node61" class="node"><title>\\ArrayAccess</title>
<ellipse fill="none" stroke="black" cx="293" cy="-19" rx="63.1385" ry="19.0919"/>
<text text-anchor="middle" x="293" y="-15.9" font-family="Times Roman,serif" font-size="14.00" fill="gray">\ArrayAccess</text>
</g>
<!-- \\PhalApi_DI&#45;&gt;\\ArrayAccess -->
<g id="edge19" class="edge"><title>\\PhalApi_DI&#45;&gt;\\ArrayAccess</title>
<path fill="none" stroke="black" stroke-dasharray="1,5" d="M555.703,-235.122C527.225,-233.734 490.378,-227.514 465,-207 402.776,-156.701 454.57,-93.0967 393,-42 384.656,-35.0754 374.627,-30.1433 364.185,-26.6479"/>
<polygon fill="none" stroke="black" points="365.097,-23.268 354.517,-23.8256 363.135,-29.9876 365.097,-23.268"/>
</g>
<!-- \\PhalApi_Cache_Memcached -->
<g id="node18" class="node"><title>\\PhalApi_Cache_Memcached</title>
<polygon fill="none" stroke="black" points="684,-1224 512,-1224 512,-1188 684,-1188 684,-1224"/>
<text text-anchor="middle" x="598" y="-1203.1" font-family="Courier,monospace" font-size="11.00">PhalApi_Cache_Memcached</text>
</g>
<!-- \\PhalApi_Cache_Memcache -->
<g id="node19" class="node"><title>\\PhalApi_Cache_Memcache</title>
<polygon fill="none" stroke="black" points="375,-1440 211,-1440 211,-1404 375,-1404 375,-1440"/>
<text text-anchor="middle" x="293" y="-1419.1" font-family="Courier,monospace" font-size="11.00">PhalApi_Cache_Memcache</text>
</g>
<!-- \\PhalApi_Cache_Memcached&#45;&gt;\\PhalApi_Cache_Memcache -->
<g id="edge21" class="edge"><title>\\PhalApi_Cache_Memcached&#45;&gt;\\PhalApi_Cache_Memcache</title>
<path fill="none" stroke="black" d="M511.838,-1211.16C494.991,-1215.41 478.413,-1222.23 465,-1233 403.558,-1282.32 452.847,-1343.75 393,-1395 390.324,-1397.29 387.471,-1399.39 384.485,-1401.31"/>
<polygon fill="none" stroke="black" points="382.716,-1398.29 375.752,-1406.28 386.176,-1404.38 382.716,-1398.29"/>
</g>
<!-- \\PhalApi_Cache -->
<g id="node50" class="node"><title>\\PhalApi_Cache</title>
<polygon fill="none" stroke="black" points="120,-1386 16,-1386 16,-1350 120,-1350 120,-1386"/>
<text text-anchor="middle" x="68" y="-1365.1" font-family="Courier,monospace" font-size="11.00">PhalApi_Cache</text>
</g>
<!-- \\PhalApi_Cache_Memcache&#45;&gt;\\PhalApi_Cache -->
<g id="edge23" class="edge"><title>\\PhalApi_Cache_Memcache&#45;&gt;\\PhalApi_Cache</title>
<path fill="none" stroke="black" stroke-dasharray="1,5" d="M217.765,-1403.94C189.207,-1397.09 157.036,-1389.37 129.852,-1382.84"/>
<polygon fill="none" stroke="black" points="130.619,-1379.43 120.078,-1380.5 128.985,-1386.24 130.619,-1379.43"/>
</g>
<!-- \\PhalApi_Cache_Redis -->
<g id="node20" class="node"><title>\\PhalApi_Cache_Redis</title>
<polygon fill="none" stroke="black" points="365,-1386 221,-1386 221,-1350 365,-1350 365,-1386"/>
<text text-anchor="middle" x="293" y="-1365.1" font-family="Courier,monospace" font-size="11.00">PhalApi_Cache_Redis</text>
</g>
<!-- \\PhalApi_Cache_Redis&#45;&gt;\\PhalApi_Cache -->
<g id="edge25" class="edge"><title>\\PhalApi_Cache_Redis&#45;&gt;\\PhalApi_Cache</title>
<path fill="none" stroke="black" stroke-dasharray="1,5" d="M220.26,-1368C191.215,-1368 158.112,-1368 130.208,-1368"/>
<polygon fill="none" stroke="black" points="130.18,-1364.5 120.18,-1368 130.179,-1371.5 130.18,-1364.5"/>
</g>
<!-- \\PhalApi_Cache_None -->
<g id="node21" class="node"><title>\\PhalApi_Cache_None</title>
<polygon fill="none" stroke="black" points="362,-1332 224,-1332 224,-1296 362,-1296 362,-1332"/>
<text text-anchor="middle" x="293" y="-1311.1" font-family="Courier,monospace" font-size="11.00">PhalApi_Cache_None</text>
</g>
<!-- \\PhalApi_Cache_None&#45;&gt;\\PhalApi_Cache -->
<g id="edge27" class="edge"><title>\\PhalApi_Cache_None&#45;&gt;\\PhalApi_Cache</title>
<path fill="none" stroke="black" stroke-dasharray="1,5" d="M223.963,-1330.57C194.035,-1337.75 159.256,-1346.1 130.146,-1353.08"/>
<polygon fill="none" stroke="black" points="129.01,-1349.76 120.103,-1355.5 130.643,-1356.56 129.01,-1349.76"/>
</g>
<!-- \\PhalApi_Cache_Multi -->
<g id="node22" class="node"><title>\\PhalApi_Cache_Multi</title>
<polygon fill="none" stroke="black" points="365,-1278 221,-1278 221,-1242 365,-1242 365,-1278"/>
<text text-anchor="middle" x="293" y="-1257.1" font-family="Courier,monospace" font-size="11.00">PhalApi_Cache_Multi</text>
</g>
<!-- \\PhalApi_Cache_Multi&#45;&gt;\\PhalApi_Cache -->
<g id="edge29" class="edge"><title>\\PhalApi_Cache_Multi&#45;&gt;\\PhalApi_Cache</title>
<path fill="none" stroke="black" stroke-dasharray="1,5" d="M220.239,-1276.77C210.915,-1279.75 201.623,-1283.16 193,-1287 158.984,-1302.16 123.68,-1325.9 99.3026,-1343.77"/>
<polygon fill="none" stroke="black" points="97.0968,-1341.05 91.1557,-1349.82 101.271,-1346.67 97.0968,-1341.05"/>
</g>
<!-- \\PhalApi_Cache_File -->
<g id="node23" class="node"><title>\\PhalApi_Cache_File</title>
<polygon fill="none" stroke="black" points="362,-1629 224,-1629 224,-1593 362,-1593 362,-1629"/>
<text text-anchor="middle" x="293" y="-1608.1" font-family="Courier,monospace" font-size="11.00">PhalApi_Cache_File</text>
</g>
<!-- \\PhalApi_Cache_File&#45;&gt;\\PhalApi_Cache -->
<g id="edge31" class="edge"><title>\\PhalApi_Cache_File&#45;&gt;\\PhalApi_Cache</title>
<path fill="none" stroke="black" stroke-dasharray="1,5" d="M223.768,-1599.96C212.772,-1596.12 202.056,-1590.96 193,-1584 128.79,-1534.68 91.7166,-1442.27 76.3761,-1395.96"/>
<polygon fill="none" stroke="black" points="79.6576,-1394.73 73.2661,-1386.28 72.9932,-1396.87 79.6576,-1394.73"/>
</g>
<!-- \\PhalApi_ModelQuery -->
<g id="node24" class="node"><title>\\PhalApi_ModelQuery</title>
<polygon fill="none" stroke="black" points="667,-1008 529,-1008 529,-972 667,-972 667,-1008"/>
<text text-anchor="middle" x="598" y="-987.1" font-family="Courier,monospace" font-size="11.00">PhalApi_ModelQuery</text>
</g>
<!-- \\PhalApi_Model_NotORM -->
<g id="node25" class="node"><title>\\PhalApi_Model_NotORM</title>
<polygon fill="none" stroke="black" points="674,-1170 522,-1170 522,-1134 674,-1134 674,-1170"/>
<text text-anchor="start" x="564" y="-1157.43" font-family="Courier,monospace" font-size="11.00">«abstract»</text>
<text text-anchor="start" x="530" y="-1144.23" font-family="Courier,monospace" font-size="11.00">PhalApi_Model_NotORM</text>
</g>
<!-- \\PhalApi_Model -->
<g id="node46" class="node"><title>\\PhalApi_Model</title>
<polygon fill="none" stroke="black" points="345,-1170 241,-1170 241,-1134 345,-1134 345,-1170"/>
<text text-anchor="middle" x="293" y="-1149.1" font-family="Courier,monospace" font-size="11.00">PhalApi_Model</text>
</g>
<!-- \\PhalApi_Model_NotORM&#45;&gt;\\PhalApi_Model -->
<g id="edge33" class="edge"><title>\\PhalApi_Model_NotORM&#45;&gt;\\PhalApi_Model</title>
<path fill="none" stroke="black" stroke-dasharray="1,5" d="M521.429,-1152C470.138,-1152 403.461,-1152 355.399,-1152"/>
<polygon fill="none" stroke="black" points="355.134,-1148.5 345.134,-1152 355.133,-1155.5 355.134,-1148.5"/>
</g>
<!-- \\PhalApi_Config_File -->
<g id="node26" class="node"><title>\\PhalApi_Config_File</title>
<polygon fill="none" stroke="black" points="670,-1116 526,-1116 526,-1080 670,-1080 670,-1116"/>
<text text-anchor="middle" x="598" y="-1095.1" font-family="Courier,monospace" font-size="11.00">PhalApi_Config_File</text>
</g>
<!-- \\PhalApi_Config -->
<g id="node48" class="node"><title>\\PhalApi_Config</title>
<polygon fill="none" stroke="black" points="348,-1116 238,-1116 238,-1080 348,-1080 348,-1116"/>
<text text-anchor="middle" x="293" y="-1095.1" font-family="Courier,monospace" font-size="11.00">PhalApi_Config</text>
</g>
<!-- \\PhalApi_Config_File&#45;&gt;\\PhalApi_Config -->
<g id="edge35" class="edge"><title>\\PhalApi_Config_File&#45;&gt;\\PhalApi_Config</title>
<path fill="none" stroke="black" stroke-dasharray="1,5" d="M525.332,-1098C474.832,-1098 408.066,-1098 359.07,-1098"/>
<polygon fill="none" stroke="black" points="358.897,-1094.5 348.897,-1098 358.897,-1101.5 358.897,-1094.5"/>
</g>
<!-- \\PhalApi_Request -->
<g id="node27" class="node"><title>\\PhalApi_Request</title>
<polygon fill="none" stroke="black" points="657,-846 539,-846 539,-810 657,-810 657,-846"/>
<text text-anchor="middle" x="598" y="-825.1" font-family="Courier,monospace" font-size="11.00">PhalApi_Request</text>
</g>
<!-- \\PhalApi_Cookie_Multi -->
<g id="node28" class="node"><title>\\PhalApi_Cookie_Multi</title>
<polygon fill="none" stroke="black" points="674,-1062 522,-1062 522,-1026 674,-1026 674,-1062"/>
<text text-anchor="middle" x="598" y="-1041.1" font-family="Courier,monospace" font-size="11.00">PhalApi_Cookie_Multi</text>
</g>
<!-- \\PhalApi_Cookie_Multi&#45;&gt;\\PhalApi_Cookie -->
<g id="edge37" class="edge"><title>\\PhalApi_Cookie_Multi&#45;&gt;\\PhalApi_Cookie</title>
<path fill="none" stroke="black" d="M521.822,-1044C471.686,-1044 406.721,-1044 358.829,-1044"/>
<polygon fill="none" stroke="black" points="358.575,-1040.5 348.575,-1044 358.575,-1047.5 358.575,-1040.5"/>
</g>
<!-- \\PhalApi_CUrl -->
<g id="node29" class="node"><title>\\PhalApi_CUrl</title>
<polygon fill="none" stroke="black" points="647,-738 549,-738 549,-702 647,-702 647,-738"/>
<text text-anchor="middle" x="598" y="-717.1" font-family="Courier,monospace" font-size="11.00">PhalApi_CUrl</text>
</g>
<!-- \\PhalApi_ModelProxy -->
<g id="node30" class="node"><title>\\PhalApi_ModelProxy</title>
<polygon fill="none" stroke="black" points="667,-684 529,-684 529,-648 667,-648 667,-684"/>
<text text-anchor="start" x="564" y="-671.433" font-family="Courier,monospace" font-size="11.00">«abstract»</text>
<text text-anchor="start" x="537" y="-658.233" font-family="Courier,monospace" font-size="11.00">PhalApi_ModelProxy</text>
</g>
<!-- \\PhalApi_Translator -->
<g id="node31" class="node"><title>\\PhalApi_Translator</title>
<polygon fill="none" stroke="black" points="667,-630 529,-630 529,-594 667,-594 667,-630"/>
<text text-anchor="middle" x="598" y="-609.1" font-family="Courier,monospace" font-size="11.00">PhalApi_Translator</text>
</g>
<!-- \\PhalApi_Request_Var -->
<g id="node32" class="node"><title>\\PhalApi_Request_Var</title>
<polygon fill="none" stroke="black" points="670,-576 526,-576 526,-540 670,-540 670,-576"/>
<text text-anchor="middle" x="598" y="-555.1" font-family="Courier,monospace" font-size="11.00">PhalApi_Request_Var</text>
</g>
<!-- \\PhalApi_Helper_TestRunner -->
<g id="node33" class="node"><title>\\PhalApi_Helper_TestRunner</title>
<polygon fill="none" stroke="black" points="690,-522 506,-522 506,-486 690,-486 690,-522"/>
<text text-anchor="middle" x="598" y="-501.1" font-family="Courier,monospace" font-size="11.00">PhalApi_Helper_TestRunner</text>
</g>
<!-- \\PhalApi_Helper_ApiDesc -->
<g id="node34" class="node"><title>\\PhalApi_Helper_ApiDesc</title>
<polygon fill="none" stroke="black" points="680,-468 516,-468 516,-432 680,-432 680,-468"/>
<text text-anchor="middle" x="598" y="-447.1" font-family="Courier,monospace" font-size="11.00">PhalApi_Helper_ApiDesc</text>
</g>
<!-- \\PhalApi_Api -->
<g id="node35" class="node"><title>\\PhalApi_Api</title>
<polygon fill="none" stroke="black" points="643,-414 553,-414 553,-378 643,-378 643,-414"/>
<text text-anchor="middle" x="598" y="-393.1" font-family="Courier,monospace" font-size="11.00">PhalApi_Api</text>
</g>
<!-- \\PhalApi_Tool -->
<g id="node36" class="node"><title>\\PhalApi_Tool</title>
<polygon fill="none" stroke="black" points="647,-360 549,-360 549,-324 647,-324 647,-360"/>
<text text-anchor="middle" x="598" y="-339.1" font-family="Courier,monospace" font-size="11.00">PhalApi_Tool</text>
</g>
<!-- \\PhalApi_Crypt_RSA_Pri2Pub -->
<g id="node37" class="node"><title>\\PhalApi_Crypt_RSA_Pri2Pub</title>
<polygon fill="none" stroke="black" points="385,-1008 201,-1008 201,-972 385,-972 385,-1008"/>
<text text-anchor="middle" x="293" y="-987.1" font-family="Courier,monospace" font-size="11.00">PhalApi_Crypt_RSA_Pri2Pub</text>
</g>
<!-- \\PhalApi_Crypt -->
<g id="node45" class="node"><title>\\PhalApi_Crypt</title>
<polygon fill="none" stroke="black" points="120,-954 16,-954 16,-918 120,-918 120,-954"/>
<text text-anchor="middle" x="68" y="-933.1" font-family="Courier,monospace" font-size="11.00">PhalApi_Crypt</text>
</g>
<!-- \\PhalApi_Crypt_RSA_Pri2Pub&#45;&gt;\\PhalApi_Crypt -->
<g id="edge39" class="edge"><title>\\PhalApi_Crypt_RSA_Pri2Pub&#45;&gt;\\PhalApi_Crypt</title>
<path fill="none" stroke="black" stroke-dasharray="1,5" d="M217.765,-971.944C189.207,-965.09 157.036,-957.369 129.852,-950.844"/>
<polygon fill="none" stroke="black" points="130.619,-947.429 120.078,-948.499 128.985,-954.236 130.619,-947.429"/>
</g>
<!-- \\PhalApi_Crypt_RSA_MultiPri2Pub -->
<g id="node38" class="node"><title>\\PhalApi_Crypt_RSA_MultiPri2Pub</title>
<polygon fill="none" stroke="black" points="707,-900 489,-900 489,-864 707,-864 707,-900"/>
<text text-anchor="middle" x="598" y="-879.1" font-family="Courier,monospace" font-size="11.00">PhalApi_Crypt_RSA_MultiPri2Pub</text>
</g>
<!-- \\PhalApi_Crypt_RSA_MultiBase -->
<g id="node40" class="node"><title>\\PhalApi_Crypt_RSA_MultiBase</title>
<polygon fill="none" stroke="black" points="393,-954 193,-954 193,-918 393,-918 393,-954"/>
<text text-anchor="start" x="259" y="-941.433" font-family="Courier,monospace" font-size="11.00">«abstract»</text>
<text text-anchor="start" x="201.5" y="-928.233" font-family="Courier,monospace" font-size="11.00">PhalApi_Crypt_RSA_MultiBase</text>
</g>
<!-- \\PhalApi_Crypt_RSA_MultiPri2Pub&#45;&gt;\\PhalApi_Crypt_RSA_MultiBase -->
<g id="edge41" class="edge"><title>\\PhalApi_Crypt_RSA_MultiPri2Pub&#45;&gt;\\PhalApi_Crypt_RSA_MultiBase</title>
<path fill="none" stroke="black" d="M496.015,-900.056C466.22,-905.331 433.525,-911.12 403.243,-916.481"/>
<polygon fill="none" stroke="black" points="402.311,-913.092 393.074,-918.282 403.531,-919.985 402.311,-913.092"/>
</g>
<!-- \\PhalApi_Crypt_RSA_MultiPub2Pri -->
<g id="node39" class="node"><title>\\PhalApi_Crypt_RSA_MultiPub2Pri</title>
<polygon fill="none" stroke="black" points="707,-954 489,-954 489,-918 707,-918 707,-954"/>
<text text-anchor="middle" x="598" y="-933.1" font-family="Courier,monospace" font-size="11.00">PhalApi_Crypt_RSA_MultiPub2Pri</text>
</g>
<!-- \\PhalApi_Crypt_RSA_MultiPub2Pri&#45;&gt;\\PhalApi_Crypt_RSA_MultiBase -->
<g id="edge43" class="edge"><title>\\PhalApi_Crypt_RSA_MultiPub2Pri&#45;&gt;\\PhalApi_Crypt_RSA_MultiBase</title>
<path fill="none" stroke="black" d="M488.319,-936C460.636,-936 430.905,-936 403.197,-936"/>
<polygon fill="none" stroke="black" points="403.088,-932.5 393.088,-936 403.088,-939.5 403.088,-932.5"/>
</g>
<!-- \\PhalApi_Crypt_RSA_MultiBase&#45;&gt;\\PhalApi_Crypt -->
<g id="edge45" class="edge"><title>\\PhalApi_Crypt_RSA_MultiBase&#45;&gt;\\PhalApi_Crypt</title>
<path fill="none" stroke="black" stroke-dasharray="1,5" d="M192.674,-936C171.416,-936 149.572,-936 130.225,-936"/>
<polygon fill="none" stroke="black" points="130.053,-932.5 120.053,-936 130.053,-939.5 130.053,-932.5"/>
</g>
<!-- \\PhalApi_Crypt_RSA_KeyGenerator -->
<g id="node41" class="node"><title>\\PhalApi_Crypt_RSA_KeyGenerator</title>
<polygon fill="none" stroke="black" points="707,-198 489,-198 489,-162 707,-162 707,-198"/>
<text text-anchor="middle" x="598" y="-177.1" font-family="Courier,monospace" font-size="11.00">PhalApi_Crypt_RSA_KeyGenerator</text>
</g>
<!-- \\PhalApi_Crypt_RSA_Pub2Pri -->
<g id="node42" class="node"><title>\\PhalApi_Crypt_RSA_Pub2Pri</title>
<polygon fill="none" stroke="black" points="385,-900 201,-900 201,-864 385,-864 385,-900"/>
<text text-anchor="middle" x="293" y="-879.1" font-family="Courier,monospace" font-size="11.00">PhalApi_Crypt_RSA_Pub2Pri</text>
</g>
<!-- \\PhalApi_Crypt_RSA_Pub2Pri&#45;&gt;\\PhalApi_Crypt -->
<g id="edge47" class="edge"><title>\\PhalApi_Crypt_RSA_Pub2Pri&#45;&gt;\\PhalApi_Crypt</title>
<path fill="none" stroke="black" stroke-dasharray="1,5" d="M217.765,-900.056C189.207,-906.91 157.036,-914.631 129.852,-921.156"/>
<polygon fill="none" stroke="black" points="128.985,-917.764 120.078,-923.501 130.619,-924.571 128.985,-917.764"/>
</g>
<!-- \\PhalApi_Crypt_Mcrypt -->
<g id="node43" class="node"><title>\\PhalApi_Crypt_Mcrypt</title>
<polygon fill="none" stroke="black" points="369,-846 217,-846 217,-810 369,-810 369,-846"/>
<text text-anchor="middle" x="293" y="-825.1" font-family="Courier,monospace" font-size="11.00">PhalApi_Crypt_Mcrypt</text>
</g>
<!-- \\PhalApi_Crypt_Mcrypt&#45;&gt;\\PhalApi_Crypt -->
<g id="edge49" class="edge"><title>\\PhalApi_Crypt_Mcrypt&#45;&gt;\\PhalApi_Crypt</title>
<path fill="none" stroke="black" stroke-dasharray="1,5" d="M216.903,-844.873C208.643,-847.777 200.516,-851.134 193,-855 158.941,-872.52 156.649,-889.938 122.858,-912.366"/>
<polygon fill="none" stroke="black" points="120.706,-909.584 114.091,-917.859 124.423,-915.516 120.706,-909.584"/>
</g>
<!-- \\PhalApi_Crypt_MultiMcrypt -->
<g id="node44" class="node"><title>\\PhalApi_Crypt_MultiMcrypt</title>
<polygon fill="none" stroke="black" points="385,-1224 201,-1224 201,-1188 385,-1188 385,-1224"/>
<text text-anchor="middle" x="293" y="-1203.1" font-family="Courier,monospace" font-size="11.00">PhalApi_Crypt_MultiMcrypt</text>
</g>
<!-- \\PhalApi_Crypt_MultiMcrypt&#45;&gt;\\PhalApi_Crypt -->
<g id="edge51" class="edge"><title>\\PhalApi_Crypt_MultiMcrypt&#45;&gt;\\PhalApi_Crypt</title>
<path fill="none" stroke="black" stroke-dasharray="1,5" d="M206.608,-1187.95C201.782,-1185.36 197.196,-1182.39 193,-1179 122.554,-1122.07 87.6587,-1014.9 74.4696,-964.09"/>
<polygon fill="none" stroke="black" points="77.803,-962.993 71.9796,-954.142 71.0124,-964.693 77.803,-962.993"/>
</g>
<!-- \\PhalApi_Filter -->
<g id="node47" class="node"><title>\\PhalApi_Filter</title>
<polygon fill="none" stroke="black" points="653,-144 543,-144 543,-108 653,-108 653,-144"/>
<text text-anchor="middle" x="598" y="-123.1" font-family="Courier,monospace" font-size="11.00">PhalApi_Filter</text>
</g>
<!-- \\PhalApi_DB -->
<g id="node49" class="node"><title>\\PhalApi_DB</title>
<polygon fill="none" stroke="black" points="640,-90 556,-90 556,-54 640,-54 640,-90"/>
<text text-anchor="middle" x="598" y="-69.1" font-family="Courier,monospace" font-size="11.00">PhalApi_DB</text>
</g>
</g>
</svg>
