<?xml version="1.0" encoding="UTF-8" standalone="no"?>
<!DOCTYPE svg PUBLIC "-//W3C//DTD SVG 1.1//EN"
 "http://www.w3.org/Graphics/SVG/1.1/DTD/svg11.dtd">
<!-- Generated by graphviz version 2.26.0 (20091210.2329)
 -->
<!-- Title: G Pages: 1 -->
<svg width="755pt" height="1757pt"
 viewBox="0.00 0.00 755.00 1757.00" xmlns="http://www.w3.org/2000/svg" xmlns:xlink="http://www.w3.org/1999/xlink">
<g id="graph1" class="graph" transform="scale(1 1) rotate(0) translate(4 1753)">
<title>G</title>
<polygon fill="white" stroke="white" points="-4,5 -4,-1753 752,-1753 752,5 -4,5"/>
<g id="graph2" class="cluster"><title>cluster_Global</title>
<polyline fill="none" stroke="gray" points="20,-46 727,-46 "/>
<path fill="none" stroke="gray" d="M727,-46C733,-46 739,-52 739,-58"/>
<polyline fill="none" stroke="gray" points="739,-58 739,-1729 "/>
<path fill="none" stroke="gray" d="M739,-1729C739,-1735 733,-1741 727,-1741"/>
<polyline fill="none" stroke="gray" points="727,-1741 20,-1741 "/>
<path fill="none" stroke="gray" d="M20,-1741C14,-1741 8,-1735 8,-1729"/>
<polyline fill="none" stroke="gray" points="8,-1729 8,-58 "/>
<path fill="none" stroke="gray" d="M8,-58C8,-52 14,-46 20,-46"/>
<text text-anchor="middle" x="373.5" y="-1727.1" font-family="Times Roman,serif" font-size="11.00" fill="gray">Global</text>
</g>
<!-- \\PhalApi -->
<g id="node2" class="node"><title>\\PhalApi</title>
<polygon fill="none" stroke="black" points="630,-1710 566,-1710 566,-1674 630,-1674 630,-1710"/>
<text text-anchor="middle" x="598" y="-1689.1" font-family="Courier,monospace" font-size="11.00">PhalApi</text>
</g>
<!-- \\PhalApi_Exception -->
<g id="node3" class="node"><title>\\PhalApi_Exception</title>
<polygon fill="none" stroke="black" points="358,-306 228,-306 228,-270 358,-270 358,-306"/>
<text text-anchor="middle" x="293" y="-285.1" font-family="Courier,monospace" font-size="11.00">PhalApi_Exception</text>
</g>
<!-- \\Exception -->
<g id="node46" class="node"><title>\\Exception</title>
<ellipse fill="none" stroke="black" cx="68" cy="-19" rx="53.033" ry="19.0919"/>
<text text-anchor="middle" x="68" y="-15.9" font-family="Times Roman,serif" font-size="14.00" fill="gray">\Exception</text>
</g>
<!-- \\PhalApi_Exception&#45;&gt;\\Exception -->
<g id="edge3" class="edge"><title>\\PhalApi_Exception&#45;&gt;\\Exception</title>
<path fill="none" stroke="black" d="M227.472,-283.733C214.855,-280.274 202.599,-274.733 193,-266 115.648,-195.629 191.216,-119.492 121,-42 119.611,-40.467 118.102,-39.0316 116.5,-37.6883"/>
<polygon fill="none" stroke="black" points="118.076,-34.5224 107.861,-31.7106 114.093,-40.2788 118.076,-34.5224"/>
</g>
<!-- \\PhalApi_Exception_InternalServerError -->
<g id="node4" class="node"><title>\\PhalApi_Exception_InternalServerError</title>
<polygon fill="none" stroke="black" points="731,-738 465,-738 465,-702 731,-702 731,-738"/>
<text text-anchor="middle" x="598" y="-717.1" font-family="Courier,monospace" font-size="11.00">PhalApi_Exception_InternalServerError</text>
</g>
<!-- \\PhalApi_Exception_InternalServerError&#45;&gt;\\PhalApi_Exception -->
<g id="edge5" class="edge"><title>\\PhalApi_Exception_InternalServerError&#45;&gt;\\PhalApi_Exception</title>
<path fill="none" stroke="black" d="M478.15,-701.957C473.518,-699.325 469.106,-696.353 465,-693 342.617,-593.072 305.715,-390.253 296.054,-316.026"/>
<polygon fill="none" stroke="black" points="299.519,-315.53 294.819,-306.035 292.572,-316.389 299.519,-315.53"/>
</g>
<!-- \\PhalApi_Exception_BadRequest -->
<g id="node5" class="node"><title>\\PhalApi_Exception_BadRequest</title>
<polygon fill="none" stroke="black" points="701,-306 495,-306 495,-270 701,-270 701,-306"/>
<text text-anchor="middle" x="598" y="-285.1" font-family="Courier,monospace" font-size="11.00">PhalApi_Exception_BadRequest</text>
</g>
<!-- \\PhalApi_Exception_BadRequest&#45;&gt;\\PhalApi_Exception -->
<g id="edge7" class="edge"><title>\\PhalApi_Exception_BadRequest&#45;&gt;\\PhalApi_Exception</title>
<path fill="none" stroke="black" d="M494.741,-288C453.67,-288 407.26,-288 369.318,-288"/>
<polygon fill="none" stroke="black" points="368.852,-284.5 358.852,-288 368.852,-291.5 368.852,-284.5"/>
</g>
<!-- \\PhalApi_DB_NotORM -->
<g id="node6" class="node"><title>\\PhalApi_DB_NotORM</title>
<polygon fill="none" stroke="black" points="663,-1548 533,-1548 533,-1512 663,-1512 663,-1548"/>
<text text-anchor="middle" x="598" y="-1527.1" font-family="Courier,monospace" font-size="11.00">PhalApi_DB_NotORM</text>
</g>
<!-- \\PhalApi_ApiFactory -->
<g id="node7" class="node"><title>\\PhalApi_ApiFactory</title>
<polygon fill="none" stroke="black" points="667,-1494 529,-1494 529,-1458 667,-1458 667,-1494"/>
<text text-anchor="middle" x="598" y="-1473.1" font-family="Courier,monospace" font-size="11.00">PhalApi_ApiFactory</text>
</g>
<!-- \\PhalApi_Loader -->
<g id="node8" class="node"><title>\\PhalApi_Loader</title>
<polygon fill="none" stroke="black" points="653,-1440 543,-1440 543,-1404 653,-1404 653,-1440"/>
<text text-anchor="middle" x="598" y="-1419.1" font-family="Courier,monospace" font-size="11.00">PhalApi_Loader</text>
</g>
<!-- \\PhalApi_Response_Explorer -->
<g id="node9" class="node"><title>\\PhalApi_Response_Explorer</title>
<polygon fill="none" stroke="black" points="690,-1602 506,-1602 506,-1566 690,-1566 690,-1602"/>
<text text-anchor="middle" x="598" y="-1581.1" font-family="Courier,monospace" font-size="11.00">PhalApi_Response_Explorer</text>
</g>
<!-- \\PhalApi_Response -->
<g id="node16" class="node"><title>\\PhalApi_Response</title>
<polygon fill="none" stroke="black" points="356,-1494 230,-1494 230,-1458 356,-1458 356,-1494"/>
<text text-anchor="start" x="259" y="-1481.43" font-family="Courier,monospace" font-size="11.00">«abstract»</text>
<text text-anchor="start" x="238.5" y="-1468.23" font-family="Courier,monospace" font-size="11.00">PhalApi_Response</text>
</g>
<!-- \\PhalApi_Response_Explorer&#45;&gt;\\PhalApi_Response -->
<g id="edge9" class="edge"><title>\\PhalApi_Response_Explorer&#45;&gt;\\PhalApi_Response</title>
<path fill="none" stroke="black" d="M505.467,-1570.75C491.583,-1567.2 477.682,-1562.69 465,-1557 428.507,-1540.62 428.955,-1520.53 393,-1503 384.482,-1498.85 375.234,-1495.26 365.917,-1492.18"/>
<polygon fill="none" stroke="black" points="366.799,-1488.79 356.21,-1489.16 364.715,-1495.47 366.799,-1488.79"/>
</g>
<!-- \\PhalApi_Response_Json -->
<g id="node10" class="node"><title>\\PhalApi_Response_Json</title>
<polygon fill="none" stroke="black" points="677,-1386 519,-1386 519,-1350 677,-1350 677,-1386"/>
<text text-anchor="middle" x="598" y="-1365.1" font-family="Courier,monospace" font-size="11.00">PhalApi_Response_Json</text>
</g>
<!-- \\PhalApi_Response_Json&#45;&gt;\\PhalApi_Response -->
<g id="edge11" class="edge"><title>\\PhalApi_Response_Json&#45;&gt;\\PhalApi_Response</title>
<path fill="none" stroke="black" d="M518.765,-1380.84C500.868,-1384.63 482.108,-1389.33 465,-1395 418.752,-1410.34 368.648,-1434.92 334.513,-1452.99"/>
<polygon fill="none" stroke="black" points="332.496,-1450.1 325.326,-1457.9 335.795,-1456.27 332.496,-1450.1"/>
</g>
<!-- \\PhalApi_Response_JsonP -->
<g id="node11" class="node"><title>\\PhalApi_Response_JsonP</title>
<polygon fill="none" stroke="black" points="680,-1656 516,-1656 516,-1620 680,-1620 680,-1656"/>
<text text-anchor="middle" x="598" y="-1635.1" font-family="Courier,monospace" font-size="11.00">PhalApi_Response_JsonP</text>
</g>
<!-- \\PhalApi_Response_JsonP&#45;&gt;\\PhalApi_Response -->
<g id="edge13" class="edge"><title>\\PhalApi_Response_JsonP&#45;&gt;\\PhalApi_Response</title>
<path fill="none" stroke="black" d="M515.251,-1631.54C497.624,-1627.42 479.864,-1620.99 465,-1611 417.113,-1578.83 439.842,-1536.67 393,-1503 384.841,-1497.14 375.48,-1492.54 365.83,-1488.95"/>
<polygon fill="none" stroke="black" points="366.712,-1485.55 356.118,-1485.68 364.477,-1492.19 366.712,-1485.55"/>
</g>
<!-- \\PhalApi_Logger_Explorer -->
<g id="node12" class="node"><title>\\PhalApi_Logger_Explorer</title>
<polygon fill="none" stroke="black" points="684,-1278 512,-1278 512,-1242 684,-1242 684,-1278"/>
<text text-anchor="middle" x="598" y="-1257.1" font-family="Courier,monospace" font-size="11.00">PhalApi_Logger_Explorer</text>
</g>
<!-- \\PhalApi_Logger -->
<g id="node14" class="node"><title>\\PhalApi_Logger</title>
<polygon fill="none" stroke="black" points="349,-1305 237,-1305 237,-1269 349,-1269 349,-1305"/>
<text text-anchor="start" x="259" y="-1292.43" font-family="Courier,monospace" font-size="11.00">«abstract»</text>
<text text-anchor="start" x="245.5" y="-1279.23" font-family="Courier,monospace" font-size="11.00">PhalApi_Logger</text>
</g>
<!-- \\PhalApi_Logger_Explorer&#45;&gt;\\PhalApi_Logger -->
<g id="edge15" class="edge"><title>\\PhalApi_Logger_Explorer&#45;&gt;\\PhalApi_Logger</title>
<path fill="none" stroke="black" d="M511.822,-1267.63C463.448,-1271.91 404.017,-1277.17 359.304,-1281.13"/>
<polygon fill="none" stroke="black" points="358.788,-1277.66 349.136,-1282.03 359.406,-1284.64 358.788,-1277.66"/>
</g>
<!-- \\PhalApi_Logger_File -->
<g id="node13" class="node"><title>\\PhalApi_Logger_File</title>
<polygon fill="none" stroke="black" points="670,-1332 526,-1332 526,-1296 670,-1296 670,-1332"/>
<text text-anchor="middle" x="598" y="-1311.1" font-family="Courier,monospace" font-size="11.00">PhalApi_Logger_File</text>
</g>
<!-- \\PhalApi_Logger_File&#45;&gt;\\PhalApi_Logger -->
<g id="edge17" class="edge"><title>\\PhalApi_Logger_File&#45;&gt;\\PhalApi_Logger</title>
<path fill="none" stroke="black" d="M525.332,-1307.57C474.997,-1303.11 408.501,-1297.22 359.549,-1292.89"/>
<polygon fill="none" stroke="black" points="359.652,-1289.39 349.382,-1291.99 359.034,-1296.36 359.652,-1289.39"/>
</g>
<!-- \\PhalApi_DI -->
<g id="node15" class="node"><title>\\PhalApi_DI</title>
<polygon fill="none" stroke="black" points="640,-252 556,-252 556,-216 640,-216 640,-252"/>
<text text-anchor="middle" x="598" y="-231.1" font-family="Courier,monospace" font-size="11.00">PhalApi_DI</text>
</g>
<!-- \\ArrayAccess -->
<g id="node55" class="node"><title>\\ArrayAccess</title>
<ellipse fill="none" stroke="black" cx="293" cy="-19" rx="63.1385" ry="19.0919"/>
<text text-anchor="middle" x="293" y="-15.9" font-family="Times Roman,serif" font-size="14.00" fill="gray">\ArrayAccess</text>
</g>
<!-- \\PhalApi_DI&#45;&gt;\\ArrayAccess -->
<g id="edge19" class="edge"><title>\\PhalApi_DI&#45;&gt;\\ArrayAccess</title>
<path fill="none" stroke="black" stroke-dasharray="1,5" d="M555.703,-235.122C527.225,-233.734 490.378,-227.514 465,-207 402.776,-156.701 454.57,-93.0967 393,-42 384.656,-35.0754 374.627,-30.1433 364.185,-26.6479"/>
<polygon fill="none" stroke="black" points="365.097,-23.268 354.517,-23.8256 363.135,-29.9876 365.097,-23.268"/>
</g>
<!-- \\PhalApi_Cache_None -->
<g id="node17" class="node"><title>\\PhalApi_Cache_None</title>
<polygon fill="none" stroke="black" points="667,-1062 529,-1062 529,-1026 667,-1026 667,-1062"/>
<text text-anchor="middle" x="598" y="-1041.1" font-family="Courier,monospace" font-size="11.00">PhalApi_Cache_None</text>
</g>
<!-- \\PhalApi_Cache -->
<g id="node44" class="node"><title>\\PhalApi_Cache</title>
<polygon fill="none" stroke="black" points="345,-1143 241,-1143 241,-1107 345,-1107 345,-1143"/>
<text text-anchor="middle" x="293" y="-1122.1" font-family="Courier,monospace" font-size="11.00">PhalApi_Cache</text>
</g>
<!-- \\PhalApi_Cache_None&#45;&gt;\\PhalApi_Cache -->
<g id="edge21" class="edge"><title>\\PhalApi_Cache_None&#45;&gt;\\PhalApi_Cache</title>
<path fill="none" stroke="black" stroke-dasharray="1,5" d="M528.659,-1056.66C508.068,-1060.8 485.534,-1065.71 465,-1071 428.195,-1080.49 387.604,-1093.12 355.101,-1103.79"/>
<polygon fill="none" stroke="black" points="353.685,-1100.57 345.287,-1107.03 355.88,-1107.22 353.685,-1100.57"/>
</g>
<!-- \\PhalApi_Cache_Multi -->
<g id="node18" class="node"><title>\\PhalApi_Cache_Multi</title>
<polygon fill="none" stroke="black" points="670,-1224 526,-1224 526,-1188 670,-1188 670,-1224"/>
<text text-anchor="middle" x="598" y="-1203.1" font-family="Courier,monospace" font-size="11.00">PhalApi_Cache_Multi</text>
</g>
<!-- \\PhalApi_Cache_Multi&#45;&gt;\\PhalApi_Cache -->
<g id="edge23" class="edge"><title>\\PhalApi_Cache_Multi&#45;&gt;\\PhalApi_Cache</title>
<path fill="none" stroke="black" stroke-dasharray="1,5" d="M525.21,-1192.64C505.571,-1188.65 484.393,-1184 465,-1179 428.195,-1169.51 387.604,-1156.88 355.101,-1146.21"/>
<polygon fill="none" stroke="black" points="355.88,-1142.78 345.287,-1142.97 353.685,-1149.43 355.88,-1142.78"/>
</g>
<!-- \\PhalApi_Cache_Memecahced -->
<g id="node19" class="node"><title>\\PhalApi_Cache_Memecahced</title>
<polygon fill="none" stroke="black" points="687,-1170 509,-1170 509,-1134 687,-1134 687,-1170"/>
<text text-anchor="middle" x="598" y="-1149.1" font-family="Courier,monospace" font-size="11.00">PhalApi_Cache_Memecahced</text>
</g>
<!-- \\PhalApi_Cache_Memecahced&#45;&gt;\\PhalApi_Cache -->
<g id="edge25" class="edge"><title>\\PhalApi_Cache_Memecahced&#45;&gt;\\PhalApi_Cache</title>
<path fill="none" stroke="black" stroke-dasharray="1,5" d="M508.14,-1144.05C458.908,-1139.69 399.134,-1134.4 355.098,-1130.5"/>
<polygon fill="none" stroke="black" points="355.376,-1127.01 345.106,-1129.61 354.759,-1133.98 355.376,-1127.01"/>
</g>
<!-- \\PhalApi_Cache_File -->
<g id="node20" class="node"><title>\\PhalApi_Cache_File</title>
<polygon fill="none" stroke="black" points="667,-1116 529,-1116 529,-1080 667,-1080 667,-1116"/>
<text text-anchor="middle" x="598" y="-1095.1" font-family="Courier,monospace" font-size="11.00">PhalApi_Cache_File</text>
</g>
<!-- \\PhalApi_Cache_File&#45;&gt;\\PhalApi_Cache -->
<g id="edge27" class="edge"><title>\\PhalApi_Cache_File&#45;&gt;\\PhalApi_Cache</title>
<path fill="none" stroke="black" stroke-dasharray="1,5" d="M528.791,-1104.13C476.667,-1108.74 405.816,-1115.01 355.421,-1119.47"/>
<polygon fill="none" stroke="black" points="354.962,-1116 345.309,-1120.37 355.579,-1122.97 354.962,-1116"/>
</g>
<!-- \\PhalApi_ModelQuery -->
<g id="node21" class="node"><title>\\PhalApi_ModelQuery</title>
<polygon fill="none" stroke="black" points="667,-846 529,-846 529,-810 667,-810 667,-846"/>
<text text-anchor="middle" x="598" y="-825.1" font-family="Courier,monospace" font-size="11.00">PhalApi_ModelQuery</text>
</g>
<!-- \\PhalApi_Model_NotORM -->
<g id="node22" class="node"><title>\\PhalApi_Model_NotORM</title>
<polygon fill="none" stroke="black" points="674,-1008 522,-1008 522,-972 674,-972 674,-1008"/>
<text text-anchor="start" x="564" y="-995.433" font-family="Courier,monospace" font-size="11.00">«abstract»</text>
<text text-anchor="start" x="530" y="-982.233" font-family="Courier,monospace" font-size="11.00">PhalApi_Model_NotORM</text>
</g>
<!-- \\PhalApi_Model -->
<g id="node40" class="node"><title>\\PhalApi_Model</title>
<polygon fill="none" stroke="black" points="345,-1008 241,-1008 241,-972 345,-972 345,-1008"/>
<text text-anchor="middle" x="293" y="-987.1" font-family="Courier,monospace" font-size="11.00">PhalApi_Model</text>
</g>
<!-- \\PhalApi_Model_NotORM&#45;&gt;\\PhalApi_Model -->
<g id="edge29" class="edge"><title>\\PhalApi_Model_NotORM&#45;&gt;\\PhalApi_Model</title>
<path fill="none" stroke="black" stroke-dasharray="1,5" d="M521.429,-990C470.138,-990 403.461,-990 355.399,-990"/>
<polygon fill="none" stroke="black" points="355.134,-986.5 345.134,-990 355.133,-993.5 355.134,-986.5"/>
</g>
<!-- \\PhalApi_Config_File -->
<g id="node23" class="node"><title>\\PhalApi_Config_File</title>
<polygon fill="none" stroke="black" points="670,-954 526,-954 526,-918 670,-918 670,-954"/>
<text text-anchor="middle" x="598" y="-933.1" font-family="Courier,monospace" font-size="11.00">PhalApi_Config_File</text>
</g>
<!-- \\PhalApi_Config -->
<g id="node42" class="node"><title>\\PhalApi_Config</title>
<polygon fill="none" stroke="black" points="348,-954 238,-954 238,-918 348,-918 348,-954"/>
<text text-anchor="middle" x="293" y="-933.1" font-family="Courier,monospace" font-size="11.00">PhalApi_Config</text>
</g>
<!-- \\PhalApi_Config_File&#45;&gt;\\PhalApi_Config -->
<g id="edge31" class="edge"><title>\\PhalApi_Config_File&#45;&gt;\\PhalApi_Config</title>
<path fill="none" stroke="black" stroke-dasharray="1,5" d="M525.332,-936C474.832,-936 408.066,-936 359.07,-936"/>
<polygon fill="none" stroke="black" points="358.897,-932.5 348.897,-936 358.897,-939.5 358.897,-932.5"/>
</g>
<!-- \\PhalApi_Request -->
<g id="node24" class="node"><title>\\PhalApi_Request</title>
<polygon fill="none" stroke="black" points="657,-684 539,-684 539,-648 657,-648 657,-684"/>
<text text-anchor="middle" x="598" y="-663.1" font-family="Courier,monospace" font-size="11.00">PhalApi_Request</text>
</g>
<!-- \\PhalApi_CUrl -->
<g id="node25" class="node"><title>\\PhalApi_CUrl</title>
<polygon fill="none" stroke="black" points="647,-630 549,-630 549,-594 647,-594 647,-630"/>
<text text-anchor="middle" x="598" y="-609.1" font-family="Courier,monospace" font-size="11.00">PhalApi_CUrl</text>
</g>
<!-- \\PhalApi_ModelProxy -->
<g id="node26" class="node"><title>\\PhalApi_ModelProxy</title>
<polygon fill="none" stroke="black" points="667,-576 529,-576 529,-540 667,-540 667,-576"/>
<text text-anchor="start" x="564" y="-563.433" font-family="Courier,monospace" font-size="11.00">«abstract»</text>
<text text-anchor="start" x="537" y="-550.233" font-family="Courier,monospace" font-size="11.00">PhalApi_ModelProxy</text>
</g>
<!-- \\PhalApi_Translator -->
<g id="node27" class="node"><title>\\PhalApi_Translator</title>
<polygon fill="none" stroke="black" points="667,-522 529,-522 529,-486 667,-486 667,-522"/>
<text text-anchor="middle" x="598" y="-501.1" font-family="Courier,monospace" font-size="11.00">PhalApi_Translator</text>
</g>
<!-- \\PhalApi_Request_Var -->
<g id="node28" class="node"><title>\\PhalApi_Request_Var</title>
<polygon fill="none" stroke="black" points="670,-468 526,-468 526,-432 670,-432 670,-468"/>
<text text-anchor="middle" x="598" y="-447.1" font-family="Courier,monospace" font-size="11.00">PhalApi_Request_Var</text>
</g>
<!-- \\PhalApi_Api -->
<g id="node29" class="node"><title>\\PhalApi_Api</title>
<polygon fill="none" stroke="black" points="643,-414 553,-414 553,-378 643,-378 643,-414"/>
<text text-anchor="middle" x="598" y="-393.1" font-family="Courier,monospace" font-size="11.00">PhalApi_Api</text>
</g>
<!-- \\PhalApi_Tool -->
<g id="node30" class="node"><title>\\PhalApi_Tool</title>
<polygon fill="none" stroke="black" points="647,-360 549,-360 549,-324 647,-324 647,-360"/>
<text text-anchor="middle" x="598" y="-339.1" font-family="Courier,monospace" font-size="11.00">PhalApi_Tool</text>
</g>
<!-- \\PhalApi_Crypt_RSA_Pri2Pub -->
<g id="node31" class="node"><title>\\PhalApi_Crypt_RSA_Pri2Pub</title>
<polygon fill="none" stroke="black" points="385,-900 201,-900 201,-864 385,-864 385,-900"/>
<text text-anchor="middle" x="293" y="-879.1" font-family="Courier,monospace" font-size="11.00">PhalApi_Crypt_RSA_Pri2Pub</text>
</g>
<!-- \\PhalApi_Crypt -->
<g id="node39" class="node"><title>\\PhalApi_Crypt</title>
<polygon fill="none" stroke="black" points="120,-846 16,-846 16,-810 120,-810 120,-846"/>
<text text-anchor="middle" x="68" y="-825.1" font-family="Courier,monospace" font-size="11.00">PhalApi_Crypt</text>
</g>
<!-- \\PhalApi_Crypt_RSA_Pri2Pub&#45;&gt;\\PhalApi_Crypt -->
<g id="edge33" class="edge"><title>\\PhalApi_Crypt_RSA_Pri2Pub&#45;&gt;\\PhalApi_Crypt</title>
<path fill="none" stroke="black" stroke-dasharray="1,5" d="M217.765,-863.944C189.207,-857.09 157.036,-849.369 129.852,-842.844"/>
<polygon fill="none" stroke="black" points="130.619,-839.429 120.078,-840.499 128.985,-846.236 130.619,-839.429"/>
</g>
<!-- \\PhalApi_Crypt_RSA_MultiPri2Pub -->
<g id="node32" class="node"><title>\\PhalApi_Crypt_RSA_MultiPri2Pub</title>
<polygon fill="none" stroke="black" points="707,-792 489,-792 489,-756 707,-756 707,-792"/>
<text text-anchor="middle" x="598" y="-771.1" font-family="Courier,monospace" font-size="11.00">PhalApi_Crypt_RSA_MultiPri2Pub</text>
</g>
<!-- \\PhalApi_Crypt_RSA_MultiBase -->
<g id="node34" class="node"><title>\\PhalApi_Crypt_RSA_MultiBase</title>
<polygon fill="none" stroke="black" points="393,-846 193,-846 193,-810 393,-810 393,-846"/>
<text text-anchor="start" x="259" y="-833.433" font-family="Courier,monospace" font-size="11.00">«abstract»</text>
<text text-anchor="start" x="201.5" y="-820.233" font-family="Courier,monospace" font-size="11.00">PhalApi_Crypt_RSA_MultiBase</text>
</g>
<!-- \\PhalApi_Crypt_RSA_MultiPri2Pub&#45;&gt;\\PhalApi_Crypt_RSA_MultiBase -->
<g id="edge35" class="edge"><title>\\PhalApi_Crypt_RSA_MultiPri2Pub&#45;&gt;\\PhalApi_Crypt_RSA_MultiBase</title>
<path fill="none" stroke="black" d="M496.015,-792.056C466.22,-797.331 433.525,-803.12 403.243,-808.481"/>
<polygon fill="none" stroke="black" points="402.311,-805.092 393.074,-810.282 403.531,-811.985 402.311,-805.092"/>
</g>
<!-- \\PhalApi_Crypt_RSA_MultiPub2Pri -->
<g id="node33" class="node"><title>\\PhalApi_Crypt_RSA_MultiPub2Pri</title>
<polygon fill="none" stroke="black" points="707,-900 489,-900 489,-864 707,-864 707,-900"/>
<text text-anchor="middle" x="598" y="-879.1" font-family="Courier,monospace" font-size="11.00">PhalApi_Crypt_RSA_MultiPub2Pri</text>
</g>
<!-- \\PhalApi_Crypt_RSA_MultiPub2Pri&#45;&gt;\\PhalApi_Crypt_RSA_MultiBase -->
<g id="edge37" class="edge"><title>\\PhalApi_Crypt_RSA_MultiPub2Pri&#45;&gt;\\PhalApi_Crypt_RSA_MultiBase</title>
<path fill="none" stroke="black" d="M496.015,-863.944C466.22,-858.669 433.525,-852.88 403.243,-847.519"/>
<polygon fill="none" stroke="black" points="403.531,-844.015 393.074,-845.718 402.311,-850.908 403.531,-844.015"/>
</g>
<!-- \\PhalApi_Crypt_RSA_MultiBase&#45;&gt;\\PhalApi_Crypt -->
<g id="edge39" class="edge"><title>\\PhalApi_Crypt_RSA_MultiBase&#45;&gt;\\PhalApi_Crypt</title>
<path fill="none" stroke="black" stroke-dasharray="1,5" d="M192.674,-828C171.416,-828 149.572,-828 130.225,-828"/>
<polygon fill="none" stroke="black" points="130.053,-824.5 120.053,-828 130.053,-831.5 130.053,-824.5"/>
</g>
<!-- \\PhalApi_Crypt_RSA_KeyGenerator -->
<g id="node35" class="node"><title>\\PhalApi_Crypt_RSA_KeyGenerator</title>
<polygon fill="none" stroke="black" points="707,-198 489,-198 489,-162 707,-162 707,-198"/>
<text text-anchor="middle" x="598" y="-177.1" font-family="Courier,monospace" font-size="11.00">PhalApi_Crypt_RSA_KeyGenerator</text>
</g>
<!-- \\PhalApi_Crypt_RSA_Pub2Pri -->
<g id="node36" class="node"><title>\\PhalApi_Crypt_RSA_Pub2Pri</title>
<polygon fill="none" stroke="black" points="385,-792 201,-792 201,-756 385,-756 385,-792"/>
<text text-anchor="middle" x="293" y="-771.1" font-family="Courier,monospace" font-size="11.00">PhalApi_Crypt_RSA_Pub2Pri</text>
</g>
<!-- \\PhalApi_Crypt_RSA_Pub2Pri&#45;&gt;\\PhalApi_Crypt -->
<g id="edge41" class="edge"><title>\\PhalApi_Crypt_RSA_Pub2Pri&#45;&gt;\\PhalApi_Crypt</title>
<path fill="none" stroke="black" stroke-dasharray="1,5" d="M217.765,-792.056C189.207,-798.91 157.036,-806.631 129.852,-813.156"/>
<polygon fill="none" stroke="black" points="128.985,-809.764 120.078,-815.501 130.619,-816.571 128.985,-809.764"/>
</g>
<!-- \\PhalApi_Crypt_Mcrypt -->
<g id="node37" class="node"><title>\\PhalApi_Crypt_Mcrypt</title>
<polygon fill="none" stroke="black" points="369,-738 217,-738 217,-702 369,-702 369,-738"/>
<text text-anchor="middle" x="293" y="-717.1" font-family="Courier,monospace" font-size="11.00">PhalApi_Crypt_Mcrypt</text>
</g>
<!-- \\PhalApi_Crypt_Mcrypt&#45;&gt;\\PhalApi_Crypt -->
<g id="edge43" class="edge"><title>\\PhalApi_Crypt_Mcrypt&#45;&gt;\\PhalApi_Crypt</title>
<path fill="none" stroke="black" stroke-dasharray="1,5" d="M216.903,-736.873C208.643,-739.777 200.516,-743.134 193,-747 158.941,-764.52 156.649,-781.938 122.858,-804.366"/>
<polygon fill="none" stroke="black" points="120.706,-801.584 114.091,-809.859 124.423,-807.516 120.706,-801.584"/>
</g>
<!-- \\PhalApi_Crypt_MultiMcrypt -->
<g id="node38" class="node"><title>\\PhalApi_Crypt_MultiMcrypt</title>
<polygon fill="none" stroke="black" points="385,-1548 201,-1548 201,-1512 385,-1512 385,-1548"/>
<text text-anchor="middle" x="293" y="-1527.1" font-family="Courier,monospace" font-size="11.00">PhalApi_Crypt_MultiMcrypt</text>
</g>
<!-- \\PhalApi_Crypt_MultiMcrypt&#45;&gt;\\PhalApi_Crypt -->
<g id="edge45" class="edge"><title>\\PhalApi_Crypt_MultiMcrypt&#45;&gt;\\PhalApi_Crypt</title>
<path fill="none" stroke="black" stroke-dasharray="1,5" d="M203.121,-1511.79C199.455,-1509.22 196.048,-1506.3 193,-1503 103.561,-1406.04 75.335,-972.077 69.334,-856.407"/>
<polygon fill="none" stroke="black" points="72.82,-856.04 68.8213,-846.229 65.8289,-856.393 72.82,-856.04"/>
</g>
<!-- \\PhalApi_Filter -->
<g id="node41" class="node"><title>\\PhalApi_Filter</title>
<polygon fill="none" stroke="black" points="653,-144 543,-144 543,-108 653,-108 653,-144"/>
<text text-anchor="middle" x="598" y="-123.1" font-family="Courier,monospace" font-size="11.00">PhalApi_Filter</text>
</g>
<!-- \\PhalApi_DB -->
<g id="node43" class="node"><title>\\PhalApi_DB</title>
<polygon fill="none" stroke="black" points="640,-90 556,-90 556,-54 640,-54 640,-90"/>
<text text-anchor="middle" x="598" y="-69.1" font-family="Courier,monospace" font-size="11.00">PhalApi_DB</text>
</g>
</g>
</svg>
