<?xml version="1.0" encoding="UTF-8" standalone="no"?>
<!DOCTYPE svg PUBLIC "-//W3C//DTD SVG 1.1//EN"
 "http://www.w3.org/Graphics/SVG/1.1/DTD/svg11.dtd">
<!-- Generated by graphviz version 2.26.0 (20091210.2329)
 -->
<!-- Title: G Pages: 1 -->
<svg width="755pt" height="1811pt"
 viewBox="0.00 0.00 755.00 1811.00" xmlns="http://www.w3.org/2000/svg" xmlns:xlink="http://www.w3.org/1999/xlink">
<g id="graph1" class="graph" transform="scale(1 1) rotate(0) translate(4 1807)">
<title>G</title>
<polygon fill="white" stroke="white" points="-4,5 -4,-1807 752,-1807 752,5 -4,5"/>
<g id="graph2" class="cluster"><title>cluster_Global</title>
<polyline fill="none" stroke="gray" points="20,-46 727,-46 "/>
<path fill="none" stroke="gray" d="M727,-46C733,-46 739,-52 739,-58"/>
<polyline fill="none" stroke="gray" points="739,-58 739,-1783 "/>
<path fill="none" stroke="gray" d="M739,-1783C739,-1789 733,-1795 727,-1795"/>
<polyline fill="none" stroke="gray" points="727,-1795 20,-1795 "/>
<path fill="none" stroke="gray" d="M20,-1795C14,-1795 8,-1789 8,-1783"/>
<polyline fill="none" stroke="gray" points="8,-1783 8,-58 "/>
<path fill="none" stroke="gray" d="M8,-58C8,-52 14,-46 20,-46"/>
<text text-anchor="middle" x="373.5" y="-1781.1" font-family="Times Roman,serif" font-size="11.00" fill="gray">Global</text>
</g>
<!-- \\PhalApi -->
<g id="node2" class="node"><title>\\PhalApi</title>
<polygon fill="none" stroke="black" points="630,-1764 566,-1764 566,-1728 630,-1728 630,-1764"/>
<text text-anchor="middle" x="598" y="-1743.1" font-family="Courier,monospace" font-size="11.00">PhalApi</text>
</g>
<!-- \\PhalApi_Exception -->
<g id="node3" class="node"><title>\\PhalApi_Exception</title>
<polygon fill="none" stroke="black" points="358,-306 228,-306 228,-270 358,-270 358,-306"/>
<text text-anchor="middle" x="293" y="-285.1" font-family="Courier,monospace" font-size="11.00">PhalApi_Exception</text>
</g>
<!-- \\Exception -->
<g id="node48" class="node"><title>\\Exception</title>
<ellipse fill="none" stroke="black" cx="68" cy="-19" rx="53.033" ry="19.0919"/>
<text text-anchor="middle" x="68" y="-15.9" font-family="Times Roman,serif" font-size="14.00" fill="gray">\Exception</text>
</g>
<!-- \\PhalApi_Exception&#45;&gt;\\Exception -->
<g id="edge3" class="edge"><title>\\PhalApi_Exception&#45;&gt;\\Exception</title>
<path fill="none" stroke="black" d="M227.472,-283.733C214.855,-280.274 202.599,-274.733 193,-266 115.648,-195.629 191.216,-119.492 121,-42 119.611,-40.467 118.102,-39.0316 116.5,-37.6883"/>
<polygon fill="none" stroke="black" points="118.076,-34.5224 107.861,-31.7106 114.093,-40.2788 118.076,-34.5224"/>
</g>
<!-- \\PhalApi_Cookie -->
<g id="node4" class="node"><title>\\PhalApi_Cookie</title>
<polygon fill="none" stroke="black" points="348,-954 238,-954 238,-918 348,-918 348,-954"/>
<text text-anchor="middle" x="293" y="-933.1" font-family="Courier,monospace" font-size="11.00">PhalApi_Cookie</text>
</g>
<!-- \\PhalApi_Exception_InternalServerError -->
<g id="node5" class="node"><title>\\PhalApi_Exception_InternalServerError</title>
<polygon fill="none" stroke="black" points="731,-684 465,-684 465,-648 731,-648 731,-684"/>
<text text-anchor="middle" x="598" y="-663.1" font-family="Courier,monospace" font-size="11.00">PhalApi_Exception_InternalServerError</text>
</g>
<!-- \\PhalApi_Exception_InternalServerError&#45;&gt;\\PhalApi_Exception -->
<g id="edge5" class="edge"><title>\\PhalApi_Exception_InternalServerError&#45;&gt;\\PhalApi_Exception</title>
<path fill="none" stroke="black" d="M478.686,-647.847C473.88,-645.248 469.289,-642.313 465,-639 355.91,-554.732 311.648,-383.198 298.019,-315.944"/>
<polygon fill="none" stroke="black" points="301.443,-315.217 296.09,-306.074 294.573,-316.56 301.443,-315.217"/>
</g>
<!-- \\PhalApi_Exception_BadRequest -->
<g id="node6" class="node"><title>\\PhalApi_Exception_BadRequest</title>
<polygon fill="none" stroke="black" points="701,-306 495,-306 495,-270 701,-270 701,-306"/>
<text text-anchor="middle" x="598" y="-285.1" font-family="Courier,monospace" font-size="11.00">PhalApi_Exception_BadRequest</text>
</g>
<!-- \\PhalApi_Exception_BadRequest&#45;&gt;\\PhalApi_Exception -->
<g id="edge7" class="edge"><title>\\PhalApi_Exception_BadRequest&#45;&gt;\\PhalApi_Exception</title>
<path fill="none" stroke="black" d="M494.741,-288C453.67,-288 407.26,-288 369.318,-288"/>
<polygon fill="none" stroke="black" points="368.852,-284.5 358.852,-288 368.852,-291.5 368.852,-284.5"/>
</g>
<!-- \\PhalApi_DB_NotORM -->
<g id="node7" class="node"><title>\\PhalApi_DB_NotORM</title>
<polygon fill="none" stroke="black" points="663,-1602 533,-1602 533,-1566 663,-1566 663,-1602"/>
<text text-anchor="middle" x="598" y="-1581.1" font-family="Courier,monospace" font-size="11.00">PhalApi_DB_NotORM</text>
</g>
<!-- \\PhalApi_ApiFactory -->
<g id="node8" class="node"><title>\\PhalApi_ApiFactory</title>
<polygon fill="none" stroke="black" points="667,-1548 529,-1548 529,-1512 667,-1512 667,-1548"/>
<text text-anchor="middle" x="598" y="-1527.1" font-family="Courier,monospace" font-size="11.00">PhalApi_ApiFactory</text>
</g>
<!-- \\PhalApi_Loader -->
<g id="node9" class="node"><title>\\PhalApi_Loader</title>
<polygon fill="none" stroke="black" points="653,-1494 543,-1494 543,-1458 653,-1458 653,-1494"/>
<text text-anchor="middle" x="598" y="-1473.1" font-family="Courier,monospace" font-size="11.00">PhalApi_Loader</text>
</g>
<!-- \\PhalApi_Response_Explorer -->
<g id="node10" class="node"><title>\\PhalApi_Response_Explorer</title>
<polygon fill="none" stroke="black" points="690,-1440 506,-1440 506,-1404 690,-1404 690,-1440"/>
<text text-anchor="middle" x="598" y="-1419.1" font-family="Courier,monospace" font-size="11.00">PhalApi_Response_Explorer</text>
</g>
<!-- \\PhalApi_Response -->
<g id="node17" class="node"><title>\\PhalApi_Response</title>
<polygon fill="none" stroke="black" points="356,-1548 230,-1548 230,-1512 356,-1512 356,-1548"/>
<text text-anchor="start" x="259" y="-1535.43" font-family="Courier,monospace" font-size="11.00">«abstract»</text>
<text text-anchor="start" x="238.5" y="-1522.23" font-family="Courier,monospace" font-size="11.00">PhalApi_Response</text>
</g>
<!-- \\PhalApi_Response_Explorer&#45;&gt;\\PhalApi_Response -->
<g id="edge9" class="edge"><title>\\PhalApi_Response_Explorer&#45;&gt;\\PhalApi_Response</title>
<path fill="none" stroke="black" d="M505.309,-1437.83C491.651,-1441.02 477.859,-1444.74 465,-1449 418.752,-1464.34 368.648,-1488.92 334.513,-1506.99"/>
<polygon fill="none" stroke="black" points="332.496,-1504.1 325.326,-1511.9 335.795,-1510.27 332.496,-1504.1"/>
</g>
<!-- \\PhalApi_Response_Json -->
<g id="node11" class="node"><title>\\PhalApi_Response_Json</title>
<polygon fill="none" stroke="black" points="677,-1710 519,-1710 519,-1674 677,-1674 677,-1710"/>
<text text-anchor="middle" x="598" y="-1689.1" font-family="Courier,monospace" font-size="11.00">PhalApi_Response_Json</text>
</g>
<!-- \\PhalApi_Response_Json&#45;&gt;\\PhalApi_Response -->
<g id="edge11" class="edge"><title>\\PhalApi_Response_Json&#45;&gt;\\PhalApi_Response</title>
<path fill="none" stroke="black" d="M518.728,-1686.32C499.974,-1682.25 480.842,-1675.64 465,-1665 417.113,-1632.83 439.842,-1590.67 393,-1557 384.841,-1551.14 375.48,-1546.54 365.83,-1542.95"/>
<polygon fill="none" stroke="black" points="366.712,-1539.55 356.118,-1539.68 364.477,-1546.19 366.712,-1539.55"/>
</g>
<!-- \\PhalApi_Response_JsonP -->
<g id="node12" class="node"><title>\\PhalApi_Response_JsonP</title>
<polygon fill="none" stroke="black" points="680,-1656 516,-1656 516,-1620 680,-1620 680,-1656"/>
<text text-anchor="middle" x="598" y="-1635.1" font-family="Courier,monospace" font-size="11.00">PhalApi_Response_JsonP</text>
</g>
<!-- \\PhalApi_Response_JsonP&#45;&gt;\\PhalApi_Response -->
<g id="edge13" class="edge"><title>\\PhalApi_Response_JsonP&#45;&gt;\\PhalApi_Response</title>
<path fill="none" stroke="black" d="M515.332,-1627.13C498.249,-1623.26 480.692,-1618.04 465,-1611 428.507,-1594.62 428.955,-1574.53 393,-1557 384.482,-1552.85 375.234,-1549.26 365.917,-1546.18"/>
<polygon fill="none" stroke="black" points="366.799,-1542.79 356.21,-1543.16 364.715,-1549.47 366.799,-1542.79"/>
</g>
<!-- \\PhalApi_Logger_Explorer -->
<g id="node13" class="node"><title>\\PhalApi_Logger_Explorer</title>
<polygon fill="none" stroke="black" points="684,-1386 512,-1386 512,-1350 684,-1350 684,-1386"/>
<text text-anchor="middle" x="598" y="-1365.1" font-family="Courier,monospace" font-size="11.00">PhalApi_Logger_Explorer</text>
</g>
<!-- \\PhalApi_Logger -->
<g id="node15" class="node"><title>\\PhalApi_Logger</title>
<polygon fill="none" stroke="black" points="349,-1359 237,-1359 237,-1323 349,-1323 349,-1359"/>
<text text-anchor="start" x="259" y="-1346.43" font-family="Courier,monospace" font-size="11.00">«abstract»</text>
<text text-anchor="start" x="245.5" y="-1333.23" font-family="Courier,monospace" font-size="11.00">PhalApi_Logger</text>
</g>
<!-- \\PhalApi_Logger_Explorer&#45;&gt;\\PhalApi_Logger -->
<g id="edge15" class="edge"><title>\\PhalApi_Logger_Explorer&#45;&gt;\\PhalApi_Logger</title>
<path fill="none" stroke="black" d="M511.822,-1360.37C463.448,-1356.09 404.017,-1350.83 359.304,-1346.87"/>
<polygon fill="none" stroke="black" points="359.406,-1343.36 349.136,-1345.97 358.788,-1350.34 359.406,-1343.36"/>
</g>
<!-- \\PhalApi_Logger_File -->
<g id="node14" class="node"><title>\\PhalApi_Logger_File</title>
<polygon fill="none" stroke="black" points="670,-1332 526,-1332 526,-1296 670,-1296 670,-1332"/>
<text text-anchor="middle" x="598" y="-1311.1" font-family="Courier,monospace" font-size="11.00">PhalApi_Logger_File</text>
</g>
<!-- \\PhalApi_Logger_File&#45;&gt;\\PhalApi_Logger -->
<g id="edge17" class="edge"><title>\\PhalApi_Logger_File&#45;&gt;\\PhalApi_Logger</title>
<path fill="none" stroke="black" d="M525.332,-1320.43C474.997,-1324.89 408.501,-1330.78 359.549,-1335.11"/>
<polygon fill="none" stroke="black" points="359.034,-1331.64 349.382,-1336.01 359.652,-1338.61 359.034,-1331.64"/>
</g>
<!-- \\PhalApi_DI -->
<g id="node16" class="node"><title>\\PhalApi_DI</title>
<polygon fill="none" stroke="black" points="640,-252 556,-252 556,-216 640,-216 640,-252"/>
<text text-anchor="middle" x="598" y="-231.1" font-family="Courier,monospace" font-size="11.00">PhalApi_DI</text>
</g>
<!-- \\ArrayAccess -->
<g id="node57" class="node"><title>\\ArrayAccess</title>
<ellipse fill="none" stroke="black" cx="293" cy="-19" rx="63.1385" ry="19.0919"/>
<text text-anchor="middle" x="293" y="-15.9" font-family="Times Roman,serif" font-size="14.00" fill="gray">\ArrayAccess</text>
</g>
<!-- \\PhalApi_DI&#45;&gt;\\ArrayAccess -->
<g id="edge19" class="edge"><title>\\PhalApi_DI&#45;&gt;\\ArrayAccess</title>
<path fill="none" stroke="black" stroke-dasharray="1,5" d="M555.703,-235.122C527.225,-233.734 490.378,-227.514 465,-207 402.776,-156.701 454.57,-93.0967 393,-42 384.656,-35.0754 374.627,-30.1433 364.185,-26.6479"/>
<polygon fill="none" stroke="black" points="365.097,-23.268 354.517,-23.8256 363.135,-29.9876 365.097,-23.268"/>
</g>
<!-- \\PhalApi_Cache_None -->
<g id="node18" class="node"><title>\\PhalApi_Cache_None</title>
<polygon fill="none" stroke="black" points="667,-1278 529,-1278 529,-1242 667,-1242 667,-1278"/>
<text text-anchor="middle" x="598" y="-1257.1" font-family="Courier,monospace" font-size="11.00">PhalApi_Cache_None</text>
</g>
<!-- \\PhalApi_Cache -->
<g id="node46" class="node"><title>\\PhalApi_Cache</title>
<polygon fill="none" stroke="black" points="345,-1197 241,-1197 241,-1161 345,-1161 345,-1197"/>
<text text-anchor="middle" x="293" y="-1176.1" font-family="Courier,monospace" font-size="11.00">PhalApi_Cache</text>
</g>
<!-- \\PhalApi_Cache_None&#45;&gt;\\PhalApi_Cache -->
<g id="edge21" class="edge"><title>\\PhalApi_Cache_None&#45;&gt;\\PhalApi_Cache</title>
<path fill="none" stroke="black" stroke-dasharray="1,5" d="M528.659,-1247.34C508.068,-1243.2 485.534,-1238.29 465,-1233 428.195,-1223.51 387.604,-1210.88 355.101,-1200.21"/>
<polygon fill="none" stroke="black" points="355.88,-1196.78 345.287,-1196.97 353.685,-1203.43 355.88,-1196.78"/>
</g>
<!-- \\PhalApi_Cache_Multi -->
<g id="node19" class="node"><title>\\PhalApi_Cache_Multi</title>
<polygon fill="none" stroke="black" points="670,-1224 526,-1224 526,-1188 670,-1188 670,-1224"/>
<text text-anchor="middle" x="598" y="-1203.1" font-family="Courier,monospace" font-size="11.00">PhalApi_Cache_Multi</text>
</g>
<!-- \\PhalApi_Cache_Multi&#45;&gt;\\PhalApi_Cache -->
<g id="edge23" class="edge"><title>\\PhalApi_Cache_Multi&#45;&gt;\\PhalApi_Cache</title>
<path fill="none" stroke="black" stroke-dasharray="1,5" d="M525.332,-1199.57C473.516,-1194.98 404.575,-1188.88 355.276,-1184.51"/>
<polygon fill="none" stroke="black" points="355.338,-1181 345.068,-1183.61 354.72,-1187.98 355.338,-1181"/>
</g>
<!-- \\PhalApi_Cache_Memecahced -->
<g id="node20" class="node"><title>\\PhalApi_Cache_Memecahced</title>
<polygon fill="none" stroke="black" points="687,-1170 509,-1170 509,-1134 687,-1134 687,-1170"/>
<text text-anchor="middle" x="598" y="-1149.1" font-family="Courier,monospace" font-size="11.00">PhalApi_Cache_Memecahced</text>
</g>
<!-- \\PhalApi_Cache_Memecahced&#45;&gt;\\PhalApi_Cache -->
<g id="edge25" class="edge"><title>\\PhalApi_Cache_Memecahced&#45;&gt;\\PhalApi_Cache</title>
<path fill="none" stroke="black" stroke-dasharray="1,5" d="M508.14,-1159.95C458.908,-1164.31 399.134,-1169.6 355.098,-1173.5"/>
<polygon fill="none" stroke="black" points="354.759,-1170.02 345.106,-1174.39 355.376,-1176.99 354.759,-1170.02"/>
</g>
<!-- \\PhalApi_Cache_File -->
<g id="node21" class="node"><title>\\PhalApi_Cache_File</title>
<polygon fill="none" stroke="black" points="667,-1116 529,-1116 529,-1080 667,-1080 667,-1116"/>
<text text-anchor="middle" x="598" y="-1095.1" font-family="Courier,monospace" font-size="11.00">PhalApi_Cache_File</text>
</g>
<!-- \\PhalApi_Cache_File&#45;&gt;\\PhalApi_Cache -->
<g id="edge27" class="edge"><title>\\PhalApi_Cache_File&#45;&gt;\\PhalApi_Cache</title>
<path fill="none" stroke="black" stroke-dasharray="1,5" d="M528.659,-1110.66C508.068,-1114.8 485.534,-1119.71 465,-1125 428.195,-1134.49 387.604,-1147.12 355.101,-1157.79"/>
<polygon fill="none" stroke="black" points="353.685,-1154.57 345.287,-1161.03 355.88,-1161.22 353.685,-1154.57"/>
</g>
<!-- \\PhalApi_ModelQuery -->
<g id="node22" class="node"><title>\\PhalApi_ModelQuery</title>
<polygon fill="none" stroke="black" points="667,-900 529,-900 529,-864 667,-864 667,-900"/>
<text text-anchor="middle" x="598" y="-879.1" font-family="Courier,monospace" font-size="11.00">PhalApi_ModelQuery</text>
</g>
<!-- \\PhalApi_Model_NotORM -->
<g id="node23" class="node"><title>\\PhalApi_Model_NotORM</title>
<polygon fill="none" stroke="black" points="674,-1062 522,-1062 522,-1026 674,-1026 674,-1062"/>
<text text-anchor="start" x="564" y="-1049.43" font-family="Courier,monospace" font-size="11.00">«abstract»</text>
<text text-anchor="start" x="530" y="-1036.23" font-family="Courier,monospace" font-size="11.00">PhalApi_Model_NotORM</text>
</g>
<!-- \\PhalApi_Model -->
<g id="node42" class="node"><title>\\PhalApi_Model</title>
<polygon fill="none" stroke="black" points="345,-1062 241,-1062 241,-1026 345,-1026 345,-1062"/>
<text text-anchor="middle" x="293" y="-1041.1" font-family="Courier,monospace" font-size="11.00">PhalApi_Model</text>
</g>
<!-- \\PhalApi_Model_NotORM&#45;&gt;\\PhalApi_Model -->
<g id="edge29" class="edge"><title>\\PhalApi_Model_NotORM&#45;&gt;\\PhalApi_Model</title>
<path fill="none" stroke="black" stroke-dasharray="1,5" d="M521.429,-1044C470.138,-1044 403.461,-1044 355.399,-1044"/>
<polygon fill="none" stroke="black" points="355.134,-1040.5 345.134,-1044 355.133,-1047.5 355.134,-1040.5"/>
</g>
<!-- \\PhalApi_Config_File -->
<g id="node24" class="node"><title>\\PhalApi_Config_File</title>
<polygon fill="none" stroke="black" points="670,-1008 526,-1008 526,-972 670,-972 670,-1008"/>
<text text-anchor="middle" x="598" y="-987.1" font-family="Courier,monospace" font-size="11.00">PhalApi_Config_File</text>
</g>
<!-- \\PhalApi_Config -->
<g id="node44" class="node"><title>\\PhalApi_Config</title>
<polygon fill="none" stroke="black" points="348,-1008 238,-1008 238,-972 348,-972 348,-1008"/>
<text text-anchor="middle" x="293" y="-987.1" font-family="Courier,monospace" font-size="11.00">PhalApi_Config</text>
</g>
<!-- \\PhalApi_Config_File&#45;&gt;\\PhalApi_Config -->
<g id="edge31" class="edge"><title>\\PhalApi_Config_File&#45;&gt;\\PhalApi_Config</title>
<path fill="none" stroke="black" stroke-dasharray="1,5" d="M525.332,-990C474.832,-990 408.066,-990 359.07,-990"/>
<polygon fill="none" stroke="black" points="358.897,-986.5 348.897,-990 358.897,-993.5 358.897,-986.5"/>
</g>
<!-- \\PhalApi_Request -->
<g id="node25" class="node"><title>\\PhalApi_Request</title>
<polygon fill="none" stroke="black" points="657,-738 539,-738 539,-702 657,-702 657,-738"/>
<text text-anchor="middle" x="598" y="-717.1" font-family="Courier,monospace" font-size="11.00">PhalApi_Request</text>
</g>
<!-- \\PhalApi_Cookie_Multi -->
<g id="node26" class="node"><title>\\PhalApi_Cookie_Multi</title>
<polygon fill="none" stroke="black" points="674,-954 522,-954 522,-918 674,-918 674,-954"/>
<text text-anchor="middle" x="598" y="-933.1" font-family="Courier,monospace" font-size="11.00">PhalApi_Cookie_Multi</text>
</g>
<!-- \\PhalApi_Cookie_Multi&#45;&gt;\\PhalApi_Cookie -->
<g id="edge33" class="edge"><title>\\PhalApi_Cookie_Multi&#45;&gt;\\PhalApi_Cookie</title>
<path fill="none" stroke="black" d="M521.822,-936C471.686,-936 406.721,-936 358.829,-936"/>
<polygon fill="none" stroke="black" points="358.575,-932.5 348.575,-936 358.575,-939.5 358.575,-932.5"/>
</g>
<!-- \\PhalApi_CUrl -->
<g id="node27" class="node"><title>\\PhalApi_CUrl</title>
<polygon fill="none" stroke="black" points="647,-630 549,-630 549,-594 647,-594 647,-630"/>
<text text-anchor="middle" x="598" y="-609.1" font-family="Courier,monospace" font-size="11.00">PhalApi_CUrl</text>
</g>
<!-- \\PhalApi_ModelProxy -->
<g id="node28" class="node"><title>\\PhalApi_ModelProxy</title>
<polygon fill="none" stroke="black" points="667,-576 529,-576 529,-540 667,-540 667,-576"/>
<text text-anchor="start" x="564" y="-563.433" font-family="Courier,monospace" font-size="11.00">«abstract»</text>
<text text-anchor="start" x="537" y="-550.233" font-family="Courier,monospace" font-size="11.00">PhalApi_ModelProxy</text>
</g>
<!-- \\PhalApi_Translator -->
<g id="node29" class="node"><title>\\PhalApi_Translator</title>
<polygon fill="none" stroke="black" points="667,-522 529,-522 529,-486 667,-486 667,-522"/>
<text text-anchor="middle" x="598" y="-501.1" font-family="Courier,monospace" font-size="11.00">PhalApi_Translator</text>
</g>
<!-- \\PhalApi_Request_Var -->
<g id="node30" class="node"><title>\\PhalApi_Request_Var</title>
<polygon fill="none" stroke="black" points="670,-468 526,-468 526,-432 670,-432 670,-468"/>
<text text-anchor="middle" x="598" y="-447.1" font-family="Courier,monospace" font-size="11.00">PhalApi_Request_Var</text>
</g>
<!-- \\PhalApi_Api -->
<g id="node31" class="node"><title>\\PhalApi_Api</title>
<polygon fill="none" stroke="black" points="643,-414 553,-414 553,-378 643,-378 643,-414"/>
<text text-anchor="middle" x="598" y="-393.1" font-family="Courier,monospace" font-size="11.00">PhalApi_Api</text>
</g>
<!-- \\PhalApi_Tool -->
<g id="node32" class="node"><title>\\PhalApi_Tool</title>
<polygon fill="none" stroke="black" points="647,-360 549,-360 549,-324 647,-324 647,-360"/>
<text text-anchor="middle" x="598" y="-339.1" font-family="Courier,monospace" font-size="11.00">PhalApi_Tool</text>
</g>
<!-- \\PhalApi_Crypt_RSA_Pri2Pub -->
<g id="node33" class="node"><title>\\PhalApi_Crypt_RSA_Pri2Pub</title>
<polygon fill="none" stroke="black" points="385,-846 201,-846 201,-810 385,-810 385,-846"/>
<text text-anchor="middle" x="293" y="-825.1" font-family="Courier,monospace" font-size="11.00">PhalApi_Crypt_RSA_Pri2Pub</text>
</g>
<!-- \\PhalApi_Crypt -->
<g id="node41" class="node"><title>\\PhalApi_Crypt</title>
<polygon fill="none" stroke="black" points="120,-846 16,-846 16,-810 120,-810 120,-846"/>
<text text-anchor="middle" x="68" y="-825.1" font-family="Courier,monospace" font-size="11.00">PhalApi_Crypt</text>
</g>
<!-- \\PhalApi_Crypt_RSA_Pri2Pub&#45;&gt;\\PhalApi_Crypt -->
<g id="edge35" class="edge"><title>\\PhalApi_Crypt_RSA_Pri2Pub&#45;&gt;\\PhalApi_Crypt</title>
<path fill="none" stroke="black" stroke-dasharray="1,5" d="M200.185,-828C176.567,-828 151.755,-828 130.088,-828"/>
<polygon fill="none" stroke="black" points="130.048,-824.5 120.048,-828 130.048,-831.5 130.048,-824.5"/>
</g>
<!-- \\PhalApi_Crypt_RSA_MultiPri2Pub -->
<g id="node34" class="node"><title>\\PhalApi_Crypt_RSA_MultiPri2Pub</title>
<polygon fill="none" stroke="black" points="707,-846 489,-846 489,-810 707,-810 707,-846"/>
<text text-anchor="middle" x="598" y="-825.1" font-family="Courier,monospace" font-size="11.00">PhalApi_Crypt_RSA_MultiPri2Pub</text>
</g>
<!-- \\PhalApi_Crypt_RSA_MultiBase -->
<g id="node36" class="node"><title>\\PhalApi_Crypt_RSA_MultiBase</title>
<polygon fill="none" stroke="black" points="393,-792 193,-792 193,-756 393,-756 393,-792"/>
<text text-anchor="start" x="259" y="-779.433" font-family="Courier,monospace" font-size="11.00">«abstract»</text>
<text text-anchor="start" x="201.5" y="-766.233" font-family="Courier,monospace" font-size="11.00">PhalApi_Crypt_RSA_MultiBase</text>
</g>
<!-- \\PhalApi_Crypt_RSA_MultiPri2Pub&#45;&gt;\\PhalApi_Crypt_RSA_MultiBase -->
<g id="edge37" class="edge"><title>\\PhalApi_Crypt_RSA_MultiPri2Pub&#45;&gt;\\PhalApi_Crypt_RSA_MultiBase</title>
<path fill="none" stroke="black" d="M496.015,-809.944C466.22,-804.669 433.525,-798.88 403.243,-793.519"/>
<polygon fill="none" stroke="black" points="403.531,-790.015 393.074,-791.718 402.311,-796.908 403.531,-790.015"/>
</g>
<!-- \\PhalApi_Crypt_RSA_MultiPub2Pri -->
<g id="node35" class="node"><title>\\PhalApi_Crypt_RSA_MultiPub2Pri</title>
<polygon fill="none" stroke="black" points="707,-792 489,-792 489,-756 707,-756 707,-792"/>
<text text-anchor="middle" x="598" y="-771.1" font-family="Courier,monospace" font-size="11.00">PhalApi_Crypt_RSA_MultiPub2Pri</text>
</g>
<!-- \\PhalApi_Crypt_RSA_MultiPub2Pri&#45;&gt;\\PhalApi_Crypt_RSA_MultiBase -->
<g id="edge39" class="edge"><title>\\PhalApi_Crypt_RSA_MultiPub2Pri&#45;&gt;\\PhalApi_Crypt_RSA_MultiBase</title>
<path fill="none" stroke="black" d="M488.319,-774C460.636,-774 430.905,-774 403.197,-774"/>
<polygon fill="none" stroke="black" points="403.088,-770.5 393.088,-774 403.088,-777.5 403.088,-770.5"/>
</g>
<!-- \\PhalApi_Crypt_RSA_MultiBase&#45;&gt;\\PhalApi_Crypt -->
<g id="edge41" class="edge"><title>\\PhalApi_Crypt_RSA_MultiBase&#45;&gt;\\PhalApi_Crypt</title>
<path fill="none" stroke="black" stroke-dasharray="1,5" d="M217.765,-792.056C189.207,-798.91 157.036,-806.631 129.852,-813.156"/>
<polygon fill="none" stroke="black" points="128.985,-809.764 120.078,-815.501 130.619,-816.571 128.985,-809.764"/>
</g>
<!-- \\PhalApi_Crypt_RSA_KeyGenerator -->
<g id="node37" class="node"><title>\\PhalApi_Crypt_RSA_KeyGenerator</title>
<polygon fill="none" stroke="black" points="707,-198 489,-198 489,-162 707,-162 707,-198"/>
<text text-anchor="middle" x="598" y="-177.1" font-family="Courier,monospace" font-size="11.00">PhalApi_Crypt_RSA_KeyGenerator</text>
</g>
<!-- \\PhalApi_Crypt_RSA_Pub2Pri -->
<g id="node38" class="node"><title>\\PhalApi_Crypt_RSA_Pub2Pri</title>
<polygon fill="none" stroke="black" points="385,-738 201,-738 201,-702 385,-702 385,-738"/>
<text text-anchor="middle" x="293" y="-717.1" font-family="Courier,monospace" font-size="11.00">PhalApi_Crypt_RSA_Pub2Pri</text>
</g>
<!-- \\PhalApi_Crypt_RSA_Pub2Pri&#45;&gt;\\PhalApi_Crypt -->
<g id="edge43" class="edge"><title>\\PhalApi_Crypt_RSA_Pub2Pri&#45;&gt;\\PhalApi_Crypt</title>
<path fill="none" stroke="black" stroke-dasharray="1,5" d="M213.747,-738.008C206.578,-740.643 199.556,-743.627 193,-747 158.941,-764.52 156.649,-781.938 122.858,-804.366"/>
<polygon fill="none" stroke="black" points="120.706,-801.584 114.091,-809.859 124.423,-807.516 120.706,-801.584"/>
</g>
<!-- \\PhalApi_Crypt_Mcrypt -->
<g id="node39" class="node"><title>\\PhalApi_Crypt_Mcrypt</title>
<polygon fill="none" stroke="black" points="369,-1602 217,-1602 217,-1566 369,-1566 369,-1602"/>
<text text-anchor="middle" x="293" y="-1581.1" font-family="Courier,monospace" font-size="11.00">PhalApi_Crypt_Mcrypt</text>
</g>
<!-- \\PhalApi_Crypt_Mcrypt&#45;&gt;\\PhalApi_Crypt -->
<g id="edge45" class="edge"><title>\\PhalApi_Crypt_Mcrypt&#45;&gt;\\PhalApi_Crypt</title>
<path fill="none" stroke="black" stroke-dasharray="1,5" d="M216.681,-1573.51C207.765,-1569.53 199.537,-1564.18 193,-1557 96.8152,-1451.33 73.3959,-978.439 68.9181,-856.67"/>
<polygon fill="none" stroke="black" points="72.4032,-856.185 68.5525,-846.315 65.4076,-856.432 72.4032,-856.185"/>
</g>
<!-- \\PhalApi_Crypt_MultiMcrypt -->
<g id="node40" class="node"><title>\\PhalApi_Crypt_MultiMcrypt</title>
<polygon fill="none" stroke="black" points="385,-900 201,-900 201,-864 385,-864 385,-900"/>
<text text-anchor="middle" x="293" y="-879.1" font-family="Courier,monospace" font-size="11.00">PhalApi_Crypt_MultiMcrypt</text>
</g>
<!-- \\PhalApi_Crypt_MultiMcrypt&#45;&gt;\\PhalApi_Crypt -->
<g id="edge47" class="edge"><title>\\PhalApi_Crypt_MultiMcrypt&#45;&gt;\\PhalApi_Crypt</title>
<path fill="none" stroke="black" stroke-dasharray="1,5" d="M217.765,-863.944C189.207,-857.09 157.036,-849.369 129.852,-842.844"/>
<polygon fill="none" stroke="black" points="130.619,-839.429 120.078,-840.499 128.985,-846.236 130.619,-839.429"/>
</g>
<!-- \\PhalApi_Filter -->
<g id="node43" class="node"><title>\\PhalApi_Filter</title>
<polygon fill="none" stroke="black" points="653,-144 543,-144 543,-108 653,-108 653,-144"/>
<text text-anchor="middle" x="598" y="-123.1" font-family="Courier,monospace" font-size="11.00">PhalApi_Filter</text>
</g>
<!-- \\PhalApi_DB -->
<g id="node45" class="node"><title>\\PhalApi_DB</title>
<polygon fill="none" stroke="black" points="640,-90 556,-90 556,-54 640,-54 640,-90"/>
<text text-anchor="middle" x="598" y="-69.1" font-family="Courier,monospace" font-size="11.00">PhalApi_DB</text>
</g>
</g>
</svg>
